<mxfile host="app.diagrams.net" agent="Mozilla/5.0 (Macintosh; Intel Mac OS X 10_15_7) AppleWebKit/605.1.15 (KHTML, like Gecko) Version/18.1.1 Safari/605.1.15" version="26.0.10">
  <diagram name="페이지-1" id="clptzggqeF6OH6gJ77fc">
    <mxGraphModel dx="1815" dy="1329" grid="0" gridSize="10" guides="1" tooltips="1" connect="1" arrows="1" fold="1" page="0" pageScale="1" pageWidth="1654" pageHeight="1169" math="0" shadow="0">
      <root>
        <mxCell id="0" />
        <mxCell id="1" parent="0" />
        <mxCell id="0KKd5dS3s44v6GaBCIF1-1" value="" style="whiteSpace=wrap;strokeWidth=2;sketch=1;hachureGap=4;jiggle=2;curveFitting=1;fontFamily=Architects Daughter;fontSource=https%3A%2F%2Ffonts.googleapis.com%2Fcss%3Ffamily%3DArchitects%2BDaughter;" vertex="1" parent="1">
          <mxGeometry x="-111" y="-6" width="933" height="119" as="geometry" />
        </mxCell>
        <mxCell id="0KKd5dS3s44v6GaBCIF1-2" value="Time_1800" style="whiteSpace=wrap;strokeWidth=2;sketch=1;hachureGap=4;jiggle=2;curveFitting=1;fontFamily=Architects Daughter;fontSource=https%3A%2F%2Ffonts.googleapis.com%2Fcss%3Ffamily%3DArchitects%2BDaughter;" vertex="1" parent="1">
          <mxGeometry x="-111" y="3794" width="195" height="124" as="geometry" />
        </mxCell>
        <mxCell id="0KKd5dS3s44v6GaBCIF1-3" value="Time_1300" style="whiteSpace=wrap;strokeWidth=2;sketch=1;hachureGap=4;jiggle=2;curveFitting=1;fontFamily=Architects Daughter;fontSource=https%3A%2F%2Ffonts.googleapis.com%2Fcss%3Ffamily%3DArchitects%2BDaughter;" vertex="1" parent="1">
          <mxGeometry x="-111" y="3650" width="195" height="124" as="geometry" />
        </mxCell>
        <mxCell id="0KKd5dS3s44v6GaBCIF1-4" value="Time_700" style="whiteSpace=wrap;strokeWidth=2;sketch=1;hachureGap=4;jiggle=2;curveFitting=1;fontFamily=Architects Daughter;fontSource=https%3A%2F%2Ffonts.googleapis.com%2Fcss%3Ffamily%3DArchitects%2BDaughter;" vertex="1" parent="1">
          <mxGeometry x="-111" y="3194" width="195" height="228" as="geometry" />
        </mxCell>
        <mxCell id="0KKd5dS3s44v6GaBCIF1-5" value="Time_2000" style="whiteSpace=wrap;strokeWidth=2;sketch=1;hachureGap=4;jiggle=2;curveFitting=1;fontFamily=Architects Daughter;fontSource=https%3A%2F%2Ffonts.googleapis.com%2Fcss%3Ffamily%3DArchitects%2BDaughter;" vertex="1" parent="1">
          <mxGeometry x="-111" y="3442" width="195" height="124" as="geometry" />
        </mxCell>
        <mxCell id="0KKd5dS3s44v6GaBCIF1-6" value="Time_1600" style="whiteSpace=wrap;strokeWidth=2;sketch=1;hachureGap=4;jiggle=2;curveFitting=1;fontFamily=Architects Daughter;fontSource=https%3A%2F%2Ffonts.googleapis.com%2Fcss%3Ffamily%3DArchitects%2BDaughter;" vertex="1" parent="1">
          <mxGeometry x="-111" y="3050" width="195" height="124" as="geometry" />
        </mxCell>
        <mxCell id="0KKd5dS3s44v6GaBCIF1-7" value="" style="whiteSpace=wrap;strokeWidth=2;sketch=1;hachureGap=4;jiggle=2;curveFitting=1;fontFamily=Architects Daughter;fontSource=https%3A%2F%2Ffonts.googleapis.com%2Fcss%3Ffamily%3DArchitects%2BDaughter;align=left;" vertex="1" parent="1">
          <mxGeometry x="-111" y="3938" width="929" height="228" as="geometry" />
        </mxCell>
        <mxCell id="0KKd5dS3s44v6GaBCIF1-8" value="Time_2300" style="whiteSpace=wrap;strokeWidth=2;sketch=1;hachureGap=4;jiggle=2;curveFitting=1;fontFamily=Architects Daughter;fontSource=https%3A%2F%2Ffonts.googleapis.com%2Fcss%3Ffamily%3DArchitects%2BDaughter;" vertex="1" parent="1">
          <mxGeometry x="-111" y="202" width="195" height="2828" as="geometry" />
        </mxCell>
        <mxCell id="0KKd5dS3s44v6GaBCIF1-9" value="IFA" style="whiteSpace=wrap;strokeWidth=2;sketch=1;hachureGap=4;jiggle=2;curveFitting=1;fontFamily=Architects Daughter;fontSource=https%3A%2F%2Ffonts.googleapis.com%2Fcss%3Ffamily%3DArchitects%2BDaughter;fillColor=none;dashed=1;dashPattern=8 8;" vertex="1" parent="1">
          <mxGeometry x="625" y="-38" width="193" height="4204" as="geometry" />
        </mxCell>
        <mxCell id="0KKd5dS3s44v6GaBCIF1-10" value="HIVE" style="whiteSpace=wrap;strokeWidth=2;sketch=1;hachureGap=4;jiggle=2;curveFitting=1;fontFamily=Architects Daughter;fontSource=https%3A%2F%2Ffonts.googleapis.com%2Fcss%3Ffamily%3DArchitects%2BDaughter;fillColor=none;dashed=1;dashPattern=8 8;" vertex="1" parent="1">
          <mxGeometry x="383" y="-36" width="195" height="4204" as="geometry" />
        </mxCell>
        <mxCell id="0KKd5dS3s44v6GaBCIF1-11" value="ODS" style="whiteSpace=wrap;strokeWidth=2;sketch=1;hachureGap=4;jiggle=2;curveFitting=1;fontFamily=Architects Daughter;fontSource=https%3A%2F%2Ffonts.googleapis.com%2Fcss%3Ffamily%3DArchitects%2BDaughter;dashed=1;dashPattern=8 8;fillColor=none;" vertex="1" parent="1">
          <mxGeometry x="134" y="-33" width="195" height="4199" as="geometry" />
        </mxCell>
        <mxCell id="0KKd5dS3s44v6GaBCIF1-12" value="FMCB10001CDA" style="rounded=1;arcSize=20;strokeWidth=2;sketch=1;hachureGap=4;jiggle=2;curveFitting=1;fontFamily=Architects Daughter;fontSource=https%3A%2F%2Ffonts.googleapis.com%2Fcss%3Ffamily%3DArchitects%2BDaughter;" vertex="1" parent="1">
          <mxGeometry x="162" y="237" width="139" height="54" as="geometry" />
        </mxCell>
        <mxCell id="0KKd5dS3s44v6GaBCIF1-13" value="FBCCD0015CDA" style="rounded=1;arcSize=20;strokeWidth=2;sketch=1;hachureGap=4;jiggle=2;curveFitting=1;fontFamily=Architects Daughter;fontSource=https%3A%2F%2Ffonts.googleapis.com%2Fcss%3Ffamily%3DArchitects%2BDaughter;" vertex="1" parent="1">
          <mxGeometry x="163" y="133" width="139" height="54" as="geometry" />
        </mxCell>
        <mxCell id="0KKd5dS3s44v6GaBCIF1-14" value="FRMLM0132ΝΤΑ" style="rounded=1;arcSize=20;strokeWidth=2;sketch=1;hachureGap=4;jiggle=2;curveFitting=1;fontFamily=Architects Daughter;fontSource=https%3A%2F%2Ffonts.googleapis.com%2Fcss%3Ffamily%3DArchitects%2BDaughter;" vertex="1" parent="1">
          <mxGeometry x="161" y="341" width="141" height="54" as="geometry" />
        </mxCell>
        <mxCell id="0KKd5dS3s44v6GaBCIF1-15" value="FRMLM0013ΝΤΑ" style="rounded=1;arcSize=20;strokeWidth=2;sketch=1;hachureGap=4;jiggle=2;curveFitting=1;fontFamily=Architects Daughter;fontSource=https%3A%2F%2Ffonts.googleapis.com%2Fcss%3Ffamily%3DArchitects%2BDaughter;" vertex="1" parent="1">
          <mxGeometry x="161" y="445" width="141" height="54" as="geometry" />
        </mxCell>
        <mxCell id="0KKd5dS3s44v6GaBCIF1-16" value="FRMLM0130ΝΤΑ" style="rounded=1;arcSize=20;strokeWidth=2;sketch=1;hachureGap=4;jiggle=2;curveFitting=1;fontFamily=Architects Daughter;fontSource=https%3A%2F%2Ffonts.googleapis.com%2Fcss%3Ffamily%3DArchitects%2BDaughter;" vertex="1" parent="1">
          <mxGeometry x="161" y="549" width="141" height="54" as="geometry" />
        </mxCell>
        <mxCell id="0KKd5dS3s44v6GaBCIF1-17" value="FRMLM0028ΝΤΑ" style="rounded=1;arcSize=20;strokeWidth=2;sketch=1;hachureGap=4;jiggle=2;curveFitting=1;fontFamily=Architects Daughter;fontSource=https%3A%2F%2Ffonts.googleapis.com%2Fcss%3Ffamily%3DArchitects%2BDaughter;" vertex="1" parent="1">
          <mxGeometry x="161" y="653" width="141" height="54" as="geometry" />
        </mxCell>
        <mxCell id="0KKd5dS3s44v6GaBCIF1-18" value="FRMLM0032ΝΤΑ" style="rounded=1;arcSize=20;strokeWidth=2;sketch=1;hachureGap=4;jiggle=2;curveFitting=1;fontFamily=Architects Daughter;fontSource=https%3A%2F%2Ffonts.googleapis.com%2Fcss%3Ffamily%3DArchitects%2BDaughter;" vertex="1" parent="1">
          <mxGeometry x="161" y="757" width="141" height="54" as="geometry" />
        </mxCell>
        <mxCell id="0KKd5dS3s44v6GaBCIF1-19" value="FPMRH0105NTA" style="rounded=1;arcSize=20;strokeWidth=2;sketch=1;hachureGap=4;jiggle=2;curveFitting=1;fontFamily=Architects Daughter;fontSource=https%3A%2F%2Ffonts.googleapis.com%2Fcss%3Ffamily%3DArchitects%2BDaughter;" vertex="1" parent="1">
          <mxGeometry x="162" y="861" width="139" height="54" as="geometry" />
        </mxCell>
        <mxCell id="0KKd5dS3s44v6GaBCIF1-20" value="FMCBI1105CDA" style="rounded=1;arcSize=20;strokeWidth=2;sketch=1;hachureGap=4;jiggle=2;curveFitting=1;fontFamily=Architects Daughter;fontSource=https%3A%2F%2Ffonts.googleapis.com%2Fcss%3Ffamily%3DArchitects%2BDaughter;" vertex="1" parent="1">
          <mxGeometry x="164" y="965" width="135" height="54" as="geometry" />
        </mxCell>
        <mxCell id="0KKd5dS3s44v6GaBCIF1-21" value="FAMST0231ΝΤΑ" style="rounded=1;arcSize=20;strokeWidth=2;sketch=1;hachureGap=4;jiggle=2;curveFitting=1;fontFamily=Architects Daughter;fontSource=https%3A%2F%2Ffonts.googleapis.com%2Fcss%3Ffamily%3DArchitects%2BDaughter;" vertex="1" parent="1">
          <mxGeometry x="163" y="1069" width="137" height="54" as="geometry" />
        </mxCell>
        <mxCell id="0KKd5dS3s44v6GaBCIF1-22" value="FBCCD0021ΝΤΑ" style="rounded=1;arcSize=20;strokeWidth=2;sketch=1;hachureGap=4;jiggle=2;curveFitting=1;fontFamily=Architects Daughter;fontSource=https%3A%2F%2Ffonts.googleapis.com%2Fcss%3Ffamily%3DArchitects%2BDaughter;" vertex="1" parent="1">
          <mxGeometry x="163" y="29" width="139" height="54" as="geometry" />
        </mxCell>
        <mxCell id="0KKd5dS3s44v6GaBCIF1-23" value="FRMMR0203ΝΤΑ" style="rounded=1;arcSize=20;strokeWidth=2;sketch=1;hachureGap=4;jiggle=2;curveFitting=1;fontFamily=Architects Daughter;fontSource=https%3A%2F%2Ffonts.googleapis.com%2Fcss%3Ffamily%3DArchitects%2BDaughter;" vertex="1" parent="1">
          <mxGeometry x="161" y="1173" width="142" height="54" as="geometry" />
        </mxCell>
        <mxCell id="0KKd5dS3s44v6GaBCIF1-24" value="FRMCR0201ΝΤΑ" style="rounded=1;arcSize=20;strokeWidth=2;sketch=1;hachureGap=4;jiggle=2;curveFitting=1;fontFamily=Architects Daughter;fontSource=https%3A%2F%2Ffonts.googleapis.com%2Fcss%3Ffamily%3DArchitects%2BDaughter;" vertex="1" parent="1">
          <mxGeometry x="162" y="1277" width="140" height="54" as="geometry" />
        </mxCell>
        <mxCell id="0KKd5dS3s44v6GaBCIF1-25" value="FPEAI0301NΤΑ" style="rounded=1;arcSize=20;strokeWidth=2;sketch=1;hachureGap=4;jiggle=2;curveFitting=1;fontFamily=Architects Daughter;fontSource=https%3A%2F%2Ffonts.googleapis.com%2Fcss%3Ffamily%3DArchitects%2BDaughter;" vertex="1" parent="1">
          <mxGeometry x="166" y="1381" width="132" height="54" as="geometry" />
        </mxCell>
        <mxCell id="0KKd5dS3s44v6GaBCIF1-26" value="FPEBI0201CDA" style="rounded=1;arcSize=20;strokeWidth=2;sketch=1;hachureGap=4;jiggle=2;curveFitting=1;fontFamily=Architects Daughter;fontSource=https%3A%2F%2Ffonts.googleapis.com%2Fcss%3Ffamily%3DArchitects%2BDaughter;" vertex="1" parent="1">
          <mxGeometry x="166" y="1485" width="132" height="54" as="geometry" />
        </mxCell>
        <mxCell id="0KKd5dS3s44v6GaBCIF1-27" value="FRMMR0227ΝΤΑ" style="rounded=1;arcSize=20;strokeWidth=2;sketch=1;hachureGap=4;jiggle=2;curveFitting=1;fontFamily=Architects Daughter;fontSource=https%3A%2F%2Ffonts.googleapis.com%2Fcss%3Ffamily%3DArchitects%2BDaughter;" vertex="1" parent="1">
          <mxGeometry x="161" y="1589" width="142" height="54" as="geometry" />
        </mxCell>
        <mxCell id="0KKd5dS3s44v6GaBCIF1-28" value="FRMMR0228ΝΤΑ" style="rounded=1;arcSize=20;strokeWidth=2;sketch=1;hachureGap=4;jiggle=2;curveFitting=1;fontFamily=Architects Daughter;fontSource=https%3A%2F%2Ffonts.googleapis.com%2Fcss%3Ffamily%3DArchitects%2BDaughter;" vertex="1" parent="1">
          <mxGeometry x="161" y="1693" width="142" height="54" as="geometry" />
        </mxCell>
        <mxCell id="0KKd5dS3s44v6GaBCIF1-29" value="FPEAI0204ΝΤΑ" style="rounded=1;arcSize=20;strokeWidth=2;sketch=1;hachureGap=4;jiggle=2;curveFitting=1;fontFamily=Architects Daughter;fontSource=https%3A%2F%2Ffonts.googleapis.com%2Fcss%3Ffamily%3DArchitects%2BDaughter;" vertex="1" parent="1">
          <mxGeometry x="166" y="1797" width="132" height="54" as="geometry" />
        </mxCell>
        <mxCell id="0KKd5dS3s44v6GaBCIF1-30" value="FMCB10005CDA" style="rounded=1;arcSize=20;strokeWidth=2;sketch=1;hachureGap=4;jiggle=2;curveFitting=1;fontFamily=Architects Daughter;fontSource=https%3A%2F%2Ffonts.googleapis.com%2Fcss%3Ffamily%3DArchitects%2BDaughter;" vertex="1" parent="1">
          <mxGeometry x="162" y="1901" width="139" height="54" as="geometry" />
        </mxCell>
        <mxCell id="0KKd5dS3s44v6GaBCIF1-31" value="FBCCD0030CDA" style="rounded=1;arcSize=20;strokeWidth=2;sketch=1;hachureGap=4;jiggle=2;curveFitting=1;fontFamily=Architects Daughter;fontSource=https%3A%2F%2Ffonts.googleapis.com%2Fcss%3Ffamily%3DArchitects%2BDaughter;" vertex="1" parent="1">
          <mxGeometry x="163" y="2005" width="139" height="54" as="geometry" />
        </mxCell>
        <mxCell id="0KKd5dS3s44v6GaBCIF1-32" value="FRMLM0030ΝΤΑ" style="rounded=1;arcSize=20;strokeWidth=2;sketch=1;hachureGap=4;jiggle=2;curveFitting=1;fontFamily=Architects Daughter;fontSource=https%3A%2F%2Ffonts.googleapis.com%2Fcss%3Ffamily%3DArchitects%2BDaughter;" vertex="1" parent="1">
          <mxGeometry x="161" y="2109" width="141" height="54" as="geometry" />
        </mxCell>
        <mxCell id="0KKd5dS3s44v6GaBCIF1-33" value="FRMLM0025ΝΤΑ" style="rounded=1;arcSize=20;strokeWidth=2;sketch=1;hachureGap=4;jiggle=2;curveFitting=1;fontFamily=Architects Daughter;fontSource=https%3A%2F%2Ffonts.googleapis.com%2Fcss%3Ffamily%3DArchitects%2BDaughter;" vertex="1" parent="1">
          <mxGeometry x="161" y="2213" width="141" height="54" as="geometry" />
        </mxCell>
        <mxCell id="0KKd5dS3s44v6GaBCIF1-34" value="FRMLM0128ΝΤΑ" style="rounded=1;arcSize=20;strokeWidth=2;sketch=1;hachureGap=4;jiggle=2;curveFitting=1;fontFamily=Architects Daughter;fontSource=https%3A%2F%2Ffonts.googleapis.com%2Fcss%3Ffamily%3DArchitects%2BDaughter;" vertex="1" parent="1">
          <mxGeometry x="161" y="2317" width="141" height="54" as="geometry" />
        </mxCell>
        <mxCell id="0KKd5dS3s44v6GaBCIF1-35" value="FRMLM0018ΝΤΑ" style="rounded=1;arcSize=20;strokeWidth=2;sketch=1;hachureGap=4;jiggle=2;curveFitting=1;fontFamily=Architects Daughter;fontSource=https%3A%2F%2Ffonts.googleapis.com%2Fcss%3Ffamily%3DArchitects%2BDaughter;" vertex="1" parent="1">
          <mxGeometry x="161" y="2421" width="141" height="54" as="geometry" />
        </mxCell>
        <mxCell id="0KKd5dS3s44v6GaBCIF1-36" value="FRMLM0019ΝΤΑ" style="rounded=1;arcSize=20;strokeWidth=2;sketch=1;hachureGap=4;jiggle=2;curveFitting=1;fontFamily=Architects Daughter;fontSource=https%3A%2F%2Ffonts.googleapis.com%2Fcss%3Ffamily%3DArchitects%2BDaughter;" vertex="1" parent="1">
          <mxGeometry x="161" y="2525" width="141" height="54" as="geometry" />
        </mxCell>
        <mxCell id="0KKd5dS3s44v6GaBCIF1-37" value="FRMLM0033ΝΤΑ" style="rounded=1;arcSize=20;strokeWidth=2;sketch=1;hachureGap=4;jiggle=2;curveFitting=1;fontFamily=Architects Daughter;fontSource=https%3A%2F%2Ffonts.googleapis.com%2Fcss%3Ffamily%3DArchitects%2BDaughter;" vertex="1" parent="1">
          <mxGeometry x="161" y="2629" width="141" height="54" as="geometry" />
        </mxCell>
        <mxCell id="0KKd5dS3s44v6GaBCIF1-38" value="FEIC10002NΤΑ" style="rounded=1;arcSize=20;strokeWidth=2;sketch=1;hachureGap=4;jiggle=2;curveFitting=1;fontFamily=Architects Daughter;fontSource=https%3A%2F%2Ffonts.googleapis.com%2Fcss%3Ffamily%3DArchitects%2BDaughter;" vertex="1" parent="1">
          <mxGeometry x="166" y="3085" width="132" height="54" as="geometry" />
        </mxCell>
        <mxCell id="0KKd5dS3s44v6GaBCIF1-39" value="FEIC10007NΤΑ" style="rounded=1;arcSize=20;strokeWidth=2;sketch=1;hachureGap=4;jiggle=2;curveFitting=1;fontFamily=Architects Daughter;fontSource=https%3A%2F%2Ffonts.googleapis.com%2Fcss%3Ffamily%3DArchitects%2BDaughter;" vertex="1" parent="1">
          <mxGeometry x="166" y="2837" width="132" height="54" as="geometry" />
        </mxCell>
        <mxCell id="0KKd5dS3s44v6GaBCIF1-40" value="FEICI0108NΤΑ" style="rounded=1;arcSize=20;strokeWidth=2;sketch=1;hachureGap=4;jiggle=2;curveFitting=1;fontFamily=Architects Daughter;fontSource=https%3A%2F%2Ffonts.googleapis.com%2Fcss%3Ffamily%3DArchitects%2BDaughter;" vertex="1" parent="1">
          <mxGeometry x="168" y="3229" width="128" height="54" as="geometry" />
        </mxCell>
        <mxCell id="0KKd5dS3s44v6GaBCIF1-41" value="FEIC10301NΤΑ" style="rounded=1;arcSize=20;strokeWidth=2;sketch=1;hachureGap=4;jiggle=2;curveFitting=1;fontFamily=Architects Daughter;fontSource=https%3A%2F%2Ffonts.googleapis.com%2Fcss%3Ffamily%3DArchitects%2BDaughter;" vertex="1" parent="1">
          <mxGeometry x="166" y="3477" width="132" height="54" as="geometry" />
        </mxCell>
        <mxCell id="0KKd5dS3s44v6GaBCIF1-42" value="FEIIB0105NTA" style="rounded=1;arcSize=20;strokeWidth=2;sketch=1;hachureGap=4;jiggle=2;curveFitting=1;fontFamily=Architects Daughter;fontSource=https%3A%2F%2Ffonts.googleapis.com%2Fcss%3Ffamily%3DArchitects%2BDaughter;" vertex="1" parent="1">
          <mxGeometry x="169" y="3333" width="126" height="54" as="geometry" />
        </mxCell>
        <mxCell id="0KKd5dS3s44v6GaBCIF1-43" value="FMCB10013CDA" style="rounded=1;arcSize=20;strokeWidth=2;sketch=1;hachureGap=4;jiggle=2;curveFitting=1;fontFamily=Architects Daughter;fontSource=https%3A%2F%2Ffonts.googleapis.com%2Fcss%3Ffamily%3DArchitects%2BDaughter;" vertex="1" parent="1">
          <mxGeometry x="162" y="2733" width="139" height="54" as="geometry" />
        </mxCell>
        <mxCell id="0KKd5dS3s44v6GaBCIF1-44" value="FEICI0146NTA" style="rounded=1;arcSize=20;strokeWidth=2;sketch=1;hachureGap=4;jiggle=2;curveFitting=1;fontFamily=Architects Daughter;fontSource=https%3A%2F%2Ffonts.googleapis.com%2Fcss%3Ffamily%3DArchitects%2BDaughter;" vertex="1" parent="1">
          <mxGeometry x="169" y="3685" width="126" height="54" as="geometry" />
        </mxCell>
        <mxCell id="0KKd5dS3s44v6GaBCIF1-45" value="FEICI0149NTA" style="rounded=1;arcSize=20;strokeWidth=2;sketch=1;hachureGap=4;jiggle=2;curveFitting=1;fontFamily=Architects Daughter;fontSource=https%3A%2F%2Ffonts.googleapis.com%2Fcss%3Ffamily%3DArchitects%2BDaughter;" vertex="1" parent="1">
          <mxGeometry x="169" y="3581" width="126" height="54" as="geometry" />
        </mxCell>
        <mxCell id="0KKd5dS3s44v6GaBCIF1-46" value="FEICI0213NTA" style="rounded=1;arcSize=20;strokeWidth=2;sketch=1;hachureGap=4;jiggle=2;curveFitting=1;fontFamily=Architects Daughter;fontSource=https%3A%2F%2Ffonts.googleapis.com%2Fcss%3Ffamily%3DArchitects%2BDaughter;" vertex="1" parent="1">
          <mxGeometry x="169" y="3829" width="126" height="54" as="geometry" />
        </mxCell>
        <mxCell id="0KKd5dS3s44v6GaBCIF1-47" value="FEIEI0309NTA" style="rounded=1;arcSize=20;strokeWidth=2;sketch=1;hachureGap=4;jiggle=2;curveFitting=1;fontFamily=Architects Daughter;fontSource=https%3A%2F%2Ffonts.googleapis.com%2Fcss%3Ffamily%3DArchitects%2BDaughter;" vertex="1" parent="1">
          <mxGeometry x="169" y="3973" width="125" height="54" as="geometry" />
        </mxCell>
        <mxCell id="0KKd5dS3s44v6GaBCIF1-48" value="FEIEI0313NTA" style="rounded=1;arcSize=20;strokeWidth=2;sketch=1;hachureGap=4;jiggle=2;curveFitting=1;fontFamily=Architects Daughter;fontSource=https%3A%2F%2Ffonts.googleapis.com%2Fcss%3Ffamily%3DArchitects%2BDaughter;" vertex="1" parent="1">
          <mxGeometry x="169" y="4077" width="125" height="54" as="geometry" />
        </mxCell>
        <mxCell id="0KKd5dS3s44v6GaBCIF1-49" value="FEWEW0012ΝΤΑ" style="rounded=1;arcSize=20;strokeWidth=2;sketch=1;hachureGap=4;jiggle=2;curveFitting=1;fontFamily=Architects Daughter;fontSource=https%3A%2F%2Ffonts.googleapis.com%2Fcss%3Ffamily%3DArchitects%2BDaughter;" vertex="1" parent="1">
          <mxGeometry x="159" y="2941" width="145" height="54" as="geometry" />
        </mxCell>
        <mxCell id="0KKd5dS3s44v6GaBCIF1-50" value="FMCB10001CDA" style="rounded=1;arcSize=20;strokeWidth=2;sketch=1;hachureGap=4;jiggle=2;curveFitting=1;fontFamily=Architects Daughter;fontSource=https%3A%2F%2Ffonts.googleapis.com%2Fcss%3Ffamily%3DArchitects%2BDaughter;" vertex="1" parent="1">
          <mxGeometry x="408" y="237" width="139" height="54" as="geometry" />
        </mxCell>
        <mxCell id="0KKd5dS3s44v6GaBCIF1-51" value="FBCCD0015CDA" style="rounded=1;arcSize=20;strokeWidth=2;sketch=1;hachureGap=4;jiggle=2;curveFitting=1;fontFamily=Architects Daughter;fontSource=https%3A%2F%2Ffonts.googleapis.com%2Fcss%3Ffamily%3DArchitects%2BDaughter;" vertex="1" parent="1">
          <mxGeometry x="408" y="133" width="139" height="54" as="geometry" />
        </mxCell>
        <mxCell id="0KKd5dS3s44v6GaBCIF1-52" value="FRMLM0132ΝΤΑ" style="rounded=1;arcSize=20;strokeWidth=2;sketch=1;hachureGap=4;jiggle=2;curveFitting=1;fontFamily=Architects Daughter;fontSource=https%3A%2F%2Ffonts.googleapis.com%2Fcss%3Ffamily%3DArchitects%2BDaughter;" vertex="1" parent="1">
          <mxGeometry x="407" y="341" width="141" height="54" as="geometry" />
        </mxCell>
        <mxCell id="0KKd5dS3s44v6GaBCIF1-53" value="FRMLM0013ΝΤΑ" style="rounded=1;arcSize=20;strokeWidth=2;sketch=1;hachureGap=4;jiggle=2;curveFitting=1;fontFamily=Architects Daughter;fontSource=https%3A%2F%2Ffonts.googleapis.com%2Fcss%3Ffamily%3DArchitects%2BDaughter;" vertex="1" parent="1">
          <mxGeometry x="407" y="445" width="141" height="54" as="geometry" />
        </mxCell>
        <mxCell id="0KKd5dS3s44v6GaBCIF1-54" value="FRMLM0130ΝΤΑ" style="rounded=1;arcSize=20;strokeWidth=2;sketch=1;hachureGap=4;jiggle=2;curveFitting=1;fontFamily=Architects Daughter;fontSource=https%3A%2F%2Ffonts.googleapis.com%2Fcss%3Ffamily%3DArchitects%2BDaughter;" vertex="1" parent="1">
          <mxGeometry x="407" y="549" width="141" height="54" as="geometry" />
        </mxCell>
        <mxCell id="0KKd5dS3s44v6GaBCIF1-55" value="FRMLM0028ΝΤΑ" style="rounded=1;arcSize=20;strokeWidth=2;sketch=1;hachureGap=4;jiggle=2;curveFitting=1;fontFamily=Architects Daughter;fontSource=https%3A%2F%2Ffonts.googleapis.com%2Fcss%3Ffamily%3DArchitects%2BDaughter;" vertex="1" parent="1">
          <mxGeometry x="407" y="653" width="141" height="54" as="geometry" />
        </mxCell>
        <mxCell id="0KKd5dS3s44v6GaBCIF1-56" value="FRMLM0032ΝΤΑ" style="rounded=1;arcSize=20;strokeWidth=2;sketch=1;hachureGap=4;jiggle=2;curveFitting=1;fontFamily=Architects Daughter;fontSource=https%3A%2F%2Ffonts.googleapis.com%2Fcss%3Ffamily%3DArchitects%2BDaughter;" vertex="1" parent="1">
          <mxGeometry x="407" y="757" width="141" height="54" as="geometry" />
        </mxCell>
        <mxCell id="0KKd5dS3s44v6GaBCIF1-57" value="FPMRH0105NTA" style="rounded=1;arcSize=20;strokeWidth=2;sketch=1;hachureGap=4;jiggle=2;curveFitting=1;fontFamily=Architects Daughter;fontSource=https%3A%2F%2Ffonts.googleapis.com%2Fcss%3Ffamily%3DArchitects%2BDaughter;" vertex="1" parent="1">
          <mxGeometry x="408" y="861" width="139" height="54" as="geometry" />
        </mxCell>
        <mxCell id="0KKd5dS3s44v6GaBCIF1-58" value="FMCBI1105CDA" style="rounded=1;arcSize=20;strokeWidth=2;sketch=1;hachureGap=4;jiggle=2;curveFitting=1;fontFamily=Architects Daughter;fontSource=https%3A%2F%2Ffonts.googleapis.com%2Fcss%3Ffamily%3DArchitects%2BDaughter;" vertex="1" parent="1">
          <mxGeometry x="410" y="965" width="135" height="54" as="geometry" />
        </mxCell>
        <mxCell id="0KKd5dS3s44v6GaBCIF1-59" value="FAMST0231ΝΤΑ" style="rounded=1;arcSize=20;strokeWidth=2;sketch=1;hachureGap=4;jiggle=2;curveFitting=1;fontFamily=Architects Daughter;fontSource=https%3A%2F%2Ffonts.googleapis.com%2Fcss%3Ffamily%3DArchitects%2BDaughter;" vertex="1" parent="1">
          <mxGeometry x="409" y="1069" width="137" height="54" as="geometry" />
        </mxCell>
        <mxCell id="0KKd5dS3s44v6GaBCIF1-60" value="FBCCD0021ΝΤΑ" style="rounded=1;arcSize=20;strokeWidth=2;sketch=1;hachureGap=4;jiggle=2;curveFitting=1;fontFamily=Architects Daughter;fontSource=https%3A%2F%2Ffonts.googleapis.com%2Fcss%3Ffamily%3DArchitects%2BDaughter;" vertex="1" parent="1">
          <mxGeometry x="408" y="29" width="139" height="54" as="geometry" />
        </mxCell>
        <mxCell id="0KKd5dS3s44v6GaBCIF1-61" value="FRMMR0203ΝΤΑ" style="rounded=1;arcSize=20;strokeWidth=2;sketch=1;hachureGap=4;jiggle=2;curveFitting=1;fontFamily=Architects Daughter;fontSource=https%3A%2F%2Ffonts.googleapis.com%2Fcss%3Ffamily%3DArchitects%2BDaughter;" vertex="1" parent="1">
          <mxGeometry x="406" y="1173" width="142" height="54" as="geometry" />
        </mxCell>
        <mxCell id="0KKd5dS3s44v6GaBCIF1-62" value="FRMCR0201ΝΤΑ" style="rounded=1;arcSize=20;strokeWidth=2;sketch=1;hachureGap=4;jiggle=2;curveFitting=1;fontFamily=Architects Daughter;fontSource=https%3A%2F%2Ffonts.googleapis.com%2Fcss%3Ffamily%3DArchitects%2BDaughter;" vertex="1" parent="1">
          <mxGeometry x="407" y="1277" width="140" height="54" as="geometry" />
        </mxCell>
        <mxCell id="0KKd5dS3s44v6GaBCIF1-63" value="FPEAI0301NΤΑ" style="rounded=1;arcSize=20;strokeWidth=2;sketch=1;hachureGap=4;jiggle=2;curveFitting=1;fontFamily=Architects Daughter;fontSource=https%3A%2F%2Ffonts.googleapis.com%2Fcss%3Ffamily%3DArchitects%2BDaughter;" vertex="1" parent="1">
          <mxGeometry x="411" y="1381" width="132" height="54" as="geometry" />
        </mxCell>
        <mxCell id="0KKd5dS3s44v6GaBCIF1-64" value="FPEBI0201CDA" style="rounded=1;arcSize=20;strokeWidth=2;sketch=1;hachureGap=4;jiggle=2;curveFitting=1;fontFamily=Architects Daughter;fontSource=https%3A%2F%2Ffonts.googleapis.com%2Fcss%3Ffamily%3DArchitects%2BDaughter;" vertex="1" parent="1">
          <mxGeometry x="411" y="1485" width="132" height="54" as="geometry" />
        </mxCell>
        <mxCell id="0KKd5dS3s44v6GaBCIF1-65" value="FRMMR0227ΝΤΑ" style="rounded=1;arcSize=20;strokeWidth=2;sketch=1;hachureGap=4;jiggle=2;curveFitting=1;fontFamily=Architects Daughter;fontSource=https%3A%2F%2Ffonts.googleapis.com%2Fcss%3Ffamily%3DArchitects%2BDaughter;" vertex="1" parent="1">
          <mxGeometry x="406" y="1589" width="142" height="54" as="geometry" />
        </mxCell>
        <mxCell id="0KKd5dS3s44v6GaBCIF1-66" value="FRMMR0228ΝΤΑ" style="rounded=1;arcSize=20;strokeWidth=2;sketch=1;hachureGap=4;jiggle=2;curveFitting=1;fontFamily=Architects Daughter;fontSource=https%3A%2F%2Ffonts.googleapis.com%2Fcss%3Ffamily%3DArchitects%2BDaughter;" vertex="1" parent="1">
          <mxGeometry x="406" y="1693" width="142" height="54" as="geometry" />
        </mxCell>
        <mxCell id="0KKd5dS3s44v6GaBCIF1-67" value="FPEAI0204ΝΤΑ" style="rounded=1;arcSize=20;strokeWidth=2;sketch=1;hachureGap=4;jiggle=2;curveFitting=1;fontFamily=Architects Daughter;fontSource=https%3A%2F%2Ffonts.googleapis.com%2Fcss%3Ffamily%3DArchitects%2BDaughter;" vertex="1" parent="1">
          <mxGeometry x="411" y="1797" width="132" height="54" as="geometry" />
        </mxCell>
        <mxCell id="0KKd5dS3s44v6GaBCIF1-68" value="FMCB10005CDA" style="rounded=1;arcSize=20;strokeWidth=2;sketch=1;hachureGap=4;jiggle=2;curveFitting=1;fontFamily=Architects Daughter;fontSource=https%3A%2F%2Ffonts.googleapis.com%2Fcss%3Ffamily%3DArchitects%2BDaughter;" vertex="1" parent="1">
          <mxGeometry x="408" y="1901" width="139" height="54" as="geometry" />
        </mxCell>
        <mxCell id="0KKd5dS3s44v6GaBCIF1-69" value="FBCCD0030CDA" style="rounded=1;arcSize=20;strokeWidth=2;sketch=1;hachureGap=4;jiggle=2;curveFitting=1;fontFamily=Architects Daughter;fontSource=https%3A%2F%2Ffonts.googleapis.com%2Fcss%3Ffamily%3DArchitects%2BDaughter;" vertex="1" parent="1">
          <mxGeometry x="408" y="2005" width="139" height="54" as="geometry" />
        </mxCell>
        <mxCell id="0KKd5dS3s44v6GaBCIF1-70" value="FRMLM0030ΝΤΑ" style="rounded=1;arcSize=20;strokeWidth=2;sketch=1;hachureGap=4;jiggle=2;curveFitting=1;fontFamily=Architects Daughter;fontSource=https%3A%2F%2Ffonts.googleapis.com%2Fcss%3Ffamily%3DArchitects%2BDaughter;" vertex="1" parent="1">
          <mxGeometry x="407" y="2109" width="141" height="54" as="geometry" />
        </mxCell>
        <mxCell id="0KKd5dS3s44v6GaBCIF1-71" value="FRMLM0025ΝΤΑ" style="rounded=1;arcSize=20;strokeWidth=2;sketch=1;hachureGap=4;jiggle=2;curveFitting=1;fontFamily=Architects Daughter;fontSource=https%3A%2F%2Ffonts.googleapis.com%2Fcss%3Ffamily%3DArchitects%2BDaughter;" vertex="1" parent="1">
          <mxGeometry x="407" y="2213" width="141" height="54" as="geometry" />
        </mxCell>
        <mxCell id="0KKd5dS3s44v6GaBCIF1-72" value="FRMLM0128ΝΤΑ" style="rounded=1;arcSize=20;strokeWidth=2;sketch=1;hachureGap=4;jiggle=2;curveFitting=1;fontFamily=Architects Daughter;fontSource=https%3A%2F%2Ffonts.googleapis.com%2Fcss%3Ffamily%3DArchitects%2BDaughter;" vertex="1" parent="1">
          <mxGeometry x="407" y="2317" width="141" height="54" as="geometry" />
        </mxCell>
        <mxCell id="0KKd5dS3s44v6GaBCIF1-73" value="FRMLM0018ΝΤΑ" style="rounded=1;arcSize=20;strokeWidth=2;sketch=1;hachureGap=4;jiggle=2;curveFitting=1;fontFamily=Architects Daughter;fontSource=https%3A%2F%2Ffonts.googleapis.com%2Fcss%3Ffamily%3DArchitects%2BDaughter;" vertex="1" parent="1">
          <mxGeometry x="407" y="2421" width="141" height="54" as="geometry" />
        </mxCell>
        <mxCell id="0KKd5dS3s44v6GaBCIF1-74" value="FRMLM0019ΝΤΑ" style="rounded=1;arcSize=20;strokeWidth=2;sketch=1;hachureGap=4;jiggle=2;curveFitting=1;fontFamily=Architects Daughter;fontSource=https%3A%2F%2Ffonts.googleapis.com%2Fcss%3Ffamily%3DArchitects%2BDaughter;" vertex="1" parent="1">
          <mxGeometry x="407" y="2525" width="141" height="54" as="geometry" />
        </mxCell>
        <mxCell id="0KKd5dS3s44v6GaBCIF1-75" value="FRMLM0033ΝΤΑ" style="rounded=1;arcSize=20;strokeWidth=2;sketch=1;hachureGap=4;jiggle=2;curveFitting=1;fontFamily=Architects Daughter;fontSource=https%3A%2F%2Ffonts.googleapis.com%2Fcss%3Ffamily%3DArchitects%2BDaughter;" vertex="1" parent="1">
          <mxGeometry x="407" y="2629" width="141" height="54" as="geometry" />
        </mxCell>
        <mxCell id="0KKd5dS3s44v6GaBCIF1-76" value="FEIC10002NΤΑ" style="rounded=1;arcSize=20;strokeWidth=2;sketch=1;hachureGap=4;jiggle=2;curveFitting=1;fontFamily=Architects Daughter;fontSource=https%3A%2F%2Ffonts.googleapis.com%2Fcss%3Ffamily%3DArchitects%2BDaughter;" vertex="1" parent="1">
          <mxGeometry x="411" y="3085" width="132" height="54" as="geometry" />
        </mxCell>
        <mxCell id="0KKd5dS3s44v6GaBCIF1-77" value="FEIC10007NΤΑ" style="rounded=1;arcSize=20;strokeWidth=2;sketch=1;hachureGap=4;jiggle=2;curveFitting=1;fontFamily=Architects Daughter;fontSource=https%3A%2F%2Ffonts.googleapis.com%2Fcss%3Ffamily%3DArchitects%2BDaughter;" vertex="1" parent="1">
          <mxGeometry x="411" y="2837" width="132" height="54" as="geometry" />
        </mxCell>
        <mxCell id="0KKd5dS3s44v6GaBCIF1-78" value="FEICI0108NΤΑ" style="rounded=1;arcSize=20;strokeWidth=2;sketch=1;hachureGap=4;jiggle=2;curveFitting=1;fontFamily=Architects Daughter;fontSource=https%3A%2F%2Ffonts.googleapis.com%2Fcss%3Ffamily%3DArchitects%2BDaughter;" vertex="1" parent="1">
          <mxGeometry x="413" y="3229" width="128" height="54" as="geometry" />
        </mxCell>
        <mxCell id="0KKd5dS3s44v6GaBCIF1-79" value="FEIC10301NΤΑ" style="rounded=1;arcSize=20;strokeWidth=2;sketch=1;hachureGap=4;jiggle=2;curveFitting=1;fontFamily=Architects Daughter;fontSource=https%3A%2F%2Ffonts.googleapis.com%2Fcss%3Ffamily%3DArchitects%2BDaughter;" vertex="1" parent="1">
          <mxGeometry x="411" y="3477" width="132" height="54" as="geometry" />
        </mxCell>
        <mxCell id="0KKd5dS3s44v6GaBCIF1-80" value="FEIIB0105NTA" style="rounded=1;arcSize=20;strokeWidth=2;sketch=1;hachureGap=4;jiggle=2;curveFitting=1;fontFamily=Architects Daughter;fontSource=https%3A%2F%2Ffonts.googleapis.com%2Fcss%3Ffamily%3DArchitects%2BDaughter;" vertex="1" parent="1">
          <mxGeometry x="414" y="3333" width="126" height="54" as="geometry" />
        </mxCell>
        <mxCell id="0KKd5dS3s44v6GaBCIF1-81" value="FMCB10013CDA" style="rounded=1;arcSize=20;strokeWidth=2;sketch=1;hachureGap=4;jiggle=2;curveFitting=1;fontFamily=Architects Daughter;fontSource=https%3A%2F%2Ffonts.googleapis.com%2Fcss%3Ffamily%3DArchitects%2BDaughter;" vertex="1" parent="1">
          <mxGeometry x="408" y="2733" width="139" height="54" as="geometry" />
        </mxCell>
        <mxCell id="0KKd5dS3s44v6GaBCIF1-82" value="FEICI0146NTA" style="rounded=1;arcSize=20;strokeWidth=2;sketch=1;hachureGap=4;jiggle=2;curveFitting=1;fontFamily=Architects Daughter;fontSource=https%3A%2F%2Ffonts.googleapis.com%2Fcss%3Ffamily%3DArchitects%2BDaughter;" vertex="1" parent="1">
          <mxGeometry x="414" y="3685" width="126" height="54" as="geometry" />
        </mxCell>
        <mxCell id="0KKd5dS3s44v6GaBCIF1-83" value="FEICI0149NTA" style="rounded=1;arcSize=20;strokeWidth=2;sketch=1;hachureGap=4;jiggle=2;curveFitting=1;fontFamily=Architects Daughter;fontSource=https%3A%2F%2Ffonts.googleapis.com%2Fcss%3Ffamily%3DArchitects%2BDaughter;" vertex="1" parent="1">
          <mxGeometry x="414" y="3581" width="126" height="54" as="geometry" />
        </mxCell>
        <mxCell id="0KKd5dS3s44v6GaBCIF1-84" value="FEICI0213NTA" style="rounded=1;arcSize=20;strokeWidth=2;sketch=1;hachureGap=4;jiggle=2;curveFitting=1;fontFamily=Architects Daughter;fontSource=https%3A%2F%2Ffonts.googleapis.com%2Fcss%3Ffamily%3DArchitects%2BDaughter;" vertex="1" parent="1">
          <mxGeometry x="414" y="3829" width="126" height="54" as="geometry" />
        </mxCell>
        <mxCell id="0KKd5dS3s44v6GaBCIF1-85" value="FEIEI0309NTA" style="rounded=1;arcSize=20;strokeWidth=2;sketch=1;hachureGap=4;jiggle=2;curveFitting=1;fontFamily=Architects Daughter;fontSource=https%3A%2F%2Ffonts.googleapis.com%2Fcss%3Ffamily%3DArchitects%2BDaughter;" vertex="1" parent="1">
          <mxGeometry x="415" y="3973" width="125" height="54" as="geometry" />
        </mxCell>
        <mxCell id="0KKd5dS3s44v6GaBCIF1-86" value="FEIEI0313NTA" style="rounded=1;arcSize=20;strokeWidth=2;sketch=1;hachureGap=4;jiggle=2;curveFitting=1;fontFamily=Architects Daughter;fontSource=https%3A%2F%2Ffonts.googleapis.com%2Fcss%3Ffamily%3DArchitects%2BDaughter;" vertex="1" parent="1">
          <mxGeometry x="415" y="4077" width="125" height="54" as="geometry" />
        </mxCell>
        <mxCell id="0KKd5dS3s44v6GaBCIF1-87" value="FEWEW0012ΝΤΑ" style="rounded=1;arcSize=20;strokeWidth=2;sketch=1;hachureGap=4;jiggle=2;curveFitting=1;fontFamily=Architects Daughter;fontSource=https%3A%2F%2Ffonts.googleapis.com%2Fcss%3Ffamily%3DArchitects%2BDaughter;" vertex="1" parent="1">
          <mxGeometry x="405" y="2941" width="145" height="54" as="geometry" />
        </mxCell>
        <mxCell id="0KKd5dS3s44v6GaBCIF1-88" value="BEWBI0236IFA" style="rounded=1;arcSize=20;strokeWidth=2;sketch=1;hachureGap=4;jiggle=2;curveFitting=1;fontFamily=Architects Daughter;fontSource=https%3A%2F%2Ffonts.googleapis.com%2Fcss%3Ffamily%3DArchitects%2BDaughter;" vertex="1" parent="1">
          <mxGeometry x="657" y="237" width="129" height="54" as="geometry" />
        </mxCell>
        <mxCell id="0KKd5dS3s44v6GaBCIF1-89" value="BEWBI0203IFA" style="rounded=1;arcSize=20;strokeWidth=2;sketch=1;hachureGap=4;jiggle=2;curveFitting=1;fontFamily=Architects Daughter;fontSource=https%3A%2F%2Ffonts.googleapis.com%2Fcss%3Ffamily%3DArchitects%2BDaughter;" vertex="1" parent="1">
          <mxGeometry x="657" y="133" width="129" height="54" as="geometry" />
        </mxCell>
        <mxCell id="0KKd5dS3s44v6GaBCIF1-90" value="BEWBI0257IFA" style="rounded=1;arcSize=20;strokeWidth=2;sketch=1;hachureGap=4;jiggle=2;curveFitting=1;fontFamily=Architects Daughter;fontSource=https%3A%2F%2Ffonts.googleapis.com%2Fcss%3Ffamily%3DArchitects%2BDaughter;" vertex="1" parent="1">
          <mxGeometry x="657" y="341" width="129" height="54" as="geometry" />
        </mxCell>
        <mxCell id="0KKd5dS3s44v6GaBCIF1-91" value="BEWBI0246IFA" style="rounded=1;arcSize=20;strokeWidth=2;sketch=1;hachureGap=4;jiggle=2;curveFitting=1;fontFamily=Architects Daughter;fontSource=https%3A%2F%2Ffonts.googleapis.com%2Fcss%3Ffamily%3DArchitects%2BDaughter;" vertex="1" parent="1">
          <mxGeometry x="657" y="445" width="129" height="54" as="geometry" />
        </mxCell>
        <mxCell id="0KKd5dS3s44v6GaBCIF1-92" value="BEWBI0256IFA" style="rounded=1;arcSize=20;strokeWidth=2;sketch=1;hachureGap=4;jiggle=2;curveFitting=1;fontFamily=Architects Daughter;fontSource=https%3A%2F%2Ffonts.googleapis.com%2Fcss%3Ffamily%3DArchitects%2BDaughter;" vertex="1" parent="1">
          <mxGeometry x="657" y="549" width="129" height="54" as="geometry" />
        </mxCell>
        <mxCell id="0KKd5dS3s44v6GaBCIF1-93" value="BEWBI0250IFA" style="rounded=1;arcSize=20;strokeWidth=2;sketch=1;hachureGap=4;jiggle=2;curveFitting=1;fontFamily=Architects Daughter;fontSource=https%3A%2F%2Ffonts.googleapis.com%2Fcss%3Ffamily%3DArchitects%2BDaughter;" vertex="1" parent="1">
          <mxGeometry x="657" y="653" width="129" height="54" as="geometry" />
        </mxCell>
        <mxCell id="0KKd5dS3s44v6GaBCIF1-94" value="BEWBI0252IFA" style="rounded=1;arcSize=20;strokeWidth=2;sketch=1;hachureGap=4;jiggle=2;curveFitting=1;fontFamily=Architects Daughter;fontSource=https%3A%2F%2Ffonts.googleapis.com%2Fcss%3Ffamily%3DArchitects%2BDaughter;" vertex="1" parent="1">
          <mxGeometry x="657" y="757" width="129" height="54" as="geometry" />
        </mxCell>
        <mxCell id="0KKd5dS3s44v6GaBCIF1-95" value="BEWBI0243IFA" style="rounded=1;arcSize=20;strokeWidth=2;sketch=1;hachureGap=4;jiggle=2;curveFitting=1;fontFamily=Architects Daughter;fontSource=https%3A%2F%2Ffonts.googleapis.com%2Fcss%3Ffamily%3DArchitects%2BDaughter;" vertex="1" parent="1">
          <mxGeometry x="657" y="861" width="129" height="54" as="geometry" />
        </mxCell>
        <mxCell id="0KKd5dS3s44v6GaBCIF1-96" value="BEWBI0239IFA" style="rounded=1;arcSize=20;strokeWidth=2;sketch=1;hachureGap=4;jiggle=2;curveFitting=1;fontFamily=Architects Daughter;fontSource=https%3A%2F%2Ffonts.googleapis.com%2Fcss%3Ffamily%3DArchitects%2BDaughter;" vertex="1" parent="1">
          <mxGeometry x="657" y="965" width="129" height="54" as="geometry" />
        </mxCell>
        <mxCell id="0KKd5dS3s44v6GaBCIF1-97" value="BEWBI0206IFA" style="rounded=1;arcSize=20;strokeWidth=2;sketch=1;hachureGap=4;jiggle=2;curveFitting=1;fontFamily=Architects Daughter;fontSource=https%3A%2F%2Ffonts.googleapis.com%2Fcss%3Ffamily%3DArchitects%2BDaughter;" vertex="1" parent="1">
          <mxGeometry x="657" y="1069" width="129" height="54" as="geometry" />
        </mxCell>
        <mxCell id="0KKd5dS3s44v6GaBCIF1-98" value="BEWBI0262IFA" style="rounded=1;arcSize=20;strokeWidth=2;sketch=1;hachureGap=4;jiggle=2;curveFitting=1;fontFamily=Architects Daughter;fontSource=https%3A%2F%2Ffonts.googleapis.com%2Fcss%3Ffamily%3DArchitects%2BDaughter;" vertex="1" parent="1">
          <mxGeometry x="657" y="29" width="129" height="54" as="geometry" />
        </mxCell>
        <mxCell id="0KKd5dS3s44v6GaBCIF1-99" value="BEWBI0259IFA" style="rounded=1;arcSize=20;strokeWidth=2;sketch=1;hachureGap=4;jiggle=2;curveFitting=1;fontFamily=Architects Daughter;fontSource=https%3A%2F%2Ffonts.googleapis.com%2Fcss%3Ffamily%3DArchitects%2BDaughter;" vertex="1" parent="1">
          <mxGeometry x="657" y="1173" width="129" height="54" as="geometry" />
        </mxCell>
        <mxCell id="0KKd5dS3s44v6GaBCIF1-100" value="BEWBI0244IFA" style="rounded=1;arcSize=20;strokeWidth=2;sketch=1;hachureGap=4;jiggle=2;curveFitting=1;fontFamily=Architects Daughter;fontSource=https%3A%2F%2Ffonts.googleapis.com%2Fcss%3Ffamily%3DArchitects%2BDaughter;" vertex="1" parent="1">
          <mxGeometry x="657" y="1277" width="129" height="54" as="geometry" />
        </mxCell>
        <mxCell id="0KKd5dS3s44v6GaBCIF1-101" value="BEWB10242IFA" style="rounded=1;arcSize=20;strokeWidth=2;sketch=1;hachureGap=4;jiggle=2;curveFitting=1;fontFamily=Architects Daughter;fontSource=https%3A%2F%2Ffonts.googleapis.com%2Fcss%3Ffamily%3DArchitects%2BDaughter;" vertex="1" parent="1">
          <mxGeometry x="655" y="1381" width="133" height="54" as="geometry" />
        </mxCell>
        <mxCell id="0KKd5dS3s44v6GaBCIF1-102" value="BEWB102221FA" style="rounded=1;arcSize=20;strokeWidth=2;sketch=1;hachureGap=4;jiggle=2;curveFitting=1;fontFamily=Architects Daughter;fontSource=https%3A%2F%2Ffonts.googleapis.com%2Fcss%3Ffamily%3DArchitects%2BDaughter;" vertex="1" parent="1">
          <mxGeometry x="653" y="1485" width="137" height="54" as="geometry" />
        </mxCell>
        <mxCell id="0KKd5dS3s44v6GaBCIF1-103" value="BEWBI02611FA" style="rounded=1;arcSize=20;strokeWidth=2;sketch=1;hachureGap=4;jiggle=2;curveFitting=1;fontFamily=Architects Daughter;fontSource=https%3A%2F%2Ffonts.googleapis.com%2Fcss%3Ffamily%3DArchitects%2BDaughter;" vertex="1" parent="1">
          <mxGeometry x="655" y="1589" width="133" height="54" as="geometry" />
        </mxCell>
        <mxCell id="0KKd5dS3s44v6GaBCIF1-104" value="BEWB10260IFA" style="rounded=1;arcSize=20;strokeWidth=2;sketch=1;hachureGap=4;jiggle=2;curveFitting=1;fontFamily=Architects Daughter;fontSource=https%3A%2F%2Ffonts.googleapis.com%2Fcss%3Ffamily%3DArchitects%2BDaughter;" vertex="1" parent="1">
          <mxGeometry x="655" y="1693" width="133" height="54" as="geometry" />
        </mxCell>
        <mxCell id="0KKd5dS3s44v6GaBCIF1-105" value="BPLCM0304IFA" style="rounded=1;arcSize=20;strokeWidth=2;sketch=1;hachureGap=4;jiggle=2;curveFitting=1;fontFamily=Architects Daughter;fontSource=https%3A%2F%2Ffonts.googleapis.com%2Fcss%3Ffamily%3DArchitects%2BDaughter;" vertex="1" parent="1">
          <mxGeometry x="656" y="1797" width="131" height="54" as="geometry" />
        </mxCell>
        <mxCell id="0KKd5dS3s44v6GaBCIF1-106" value="BEWB10238IFA" style="rounded=1;arcSize=20;strokeWidth=2;sketch=1;hachureGap=4;jiggle=2;curveFitting=1;fontFamily=Architects Daughter;fontSource=https%3A%2F%2Ffonts.googleapis.com%2Fcss%3Ffamily%3DArchitects%2BDaughter;" vertex="1" parent="1">
          <mxGeometry x="655" y="1901" width="133" height="54" as="geometry" />
        </mxCell>
        <mxCell id="0KKd5dS3s44v6GaBCIF1-107" value="BEWBI0251IFA" style="rounded=1;arcSize=20;strokeWidth=2;sketch=1;hachureGap=4;jiggle=2;curveFitting=1;fontFamily=Architects Daughter;fontSource=https%3A%2F%2Ffonts.googleapis.com%2Fcss%3Ffamily%3DArchitects%2BDaughter;" vertex="1" parent="1">
          <mxGeometry x="657" y="2005" width="129" height="54" as="geometry" />
        </mxCell>
        <mxCell id="0KKd5dS3s44v6GaBCIF1-108" value="BEWBI0249IFA" style="rounded=1;arcSize=20;strokeWidth=2;sketch=1;hachureGap=4;jiggle=2;curveFitting=1;fontFamily=Architects Daughter;fontSource=https%3A%2F%2Ffonts.googleapis.com%2Fcss%3Ffamily%3DArchitects%2BDaughter;" vertex="1" parent="1">
          <mxGeometry x="657" y="2109" width="129" height="54" as="geometry" />
        </mxCell>
        <mxCell id="0KKd5dS3s44v6GaBCIF1-109" value="BEWBI0255IFA" style="rounded=1;arcSize=20;strokeWidth=2;sketch=1;hachureGap=4;jiggle=2;curveFitting=1;fontFamily=Architects Daughter;fontSource=https%3A%2F%2Ffonts.googleapis.com%2Fcss%3Ffamily%3DArchitects%2BDaughter;" vertex="1" parent="1">
          <mxGeometry x="657" y="2213" width="129" height="54" as="geometry" />
        </mxCell>
        <mxCell id="0KKd5dS3s44v6GaBCIF1-110" value="BEWB102071FA" style="rounded=1;arcSize=20;strokeWidth=2;sketch=1;hachureGap=4;jiggle=2;curveFitting=1;fontFamily=Architects Daughter;fontSource=https%3A%2F%2Ffonts.googleapis.com%2Fcss%3Ffamily%3DArchitects%2BDaughter;" vertex="1" parent="1">
          <mxGeometry x="653" y="2317" width="137" height="54" as="geometry" />
        </mxCell>
        <mxCell id="0KKd5dS3s44v6GaBCIF1-111" value="BEWB102081FA" style="rounded=1;arcSize=20;strokeWidth=2;sketch=1;hachureGap=4;jiggle=2;curveFitting=1;fontFamily=Architects Daughter;fontSource=https%3A%2F%2Ffonts.googleapis.com%2Fcss%3Ffamily%3DArchitects%2BDaughter;" vertex="1" parent="1">
          <mxGeometry x="653" y="2421" width="137" height="54" as="geometry" />
        </mxCell>
        <mxCell id="0KKd5dS3s44v6GaBCIF1-112" value="BEWB102091FA" style="rounded=1;arcSize=20;strokeWidth=2;sketch=1;hachureGap=4;jiggle=2;curveFitting=1;fontFamily=Architects Daughter;fontSource=https%3A%2F%2Ffonts.googleapis.com%2Fcss%3Ffamily%3DArchitects%2BDaughter;" vertex="1" parent="1">
          <mxGeometry x="653" y="2525" width="137" height="54" as="geometry" />
        </mxCell>
        <mxCell id="0KKd5dS3s44v6GaBCIF1-113" value="BEWBI0210IFA" style="rounded=1;arcSize=20;strokeWidth=2;sketch=1;hachureGap=4;jiggle=2;curveFitting=1;fontFamily=Architects Daughter;fontSource=https%3A%2F%2Ffonts.googleapis.com%2Fcss%3Ffamily%3DArchitects%2BDaughter;" vertex="1" parent="1">
          <mxGeometry x="657" y="2629" width="129" height="54" as="geometry" />
        </mxCell>
        <mxCell id="0KKd5dS3s44v6GaBCIF1-114" value="BEWBI0211IFA" style="rounded=1;arcSize=20;strokeWidth=2;sketch=1;hachureGap=4;jiggle=2;curveFitting=1;fontFamily=Architects Daughter;fontSource=https%3A%2F%2Ffonts.googleapis.com%2Fcss%3Ffamily%3DArchitects%2BDaughter;" vertex="1" parent="1">
          <mxGeometry x="657" y="3085" width="129" height="54" as="geometry" />
        </mxCell>
        <mxCell id="0KKd5dS3s44v6GaBCIF1-115" value="BEWBI0213IFA" style="rounded=1;arcSize=20;strokeWidth=2;sketch=1;hachureGap=4;jiggle=2;curveFitting=1;fontFamily=Architects Daughter;fontSource=https%3A%2F%2Ffonts.googleapis.com%2Fcss%3Ffamily%3DArchitects%2BDaughter;" vertex="1" parent="1">
          <mxGeometry x="657" y="2837" width="129" height="54" as="geometry" />
        </mxCell>
        <mxCell id="0KKd5dS3s44v6GaBCIF1-116" value="BEWB10247IFA" style="rounded=1;arcSize=20;strokeWidth=2;sketch=1;hachureGap=4;jiggle=2;curveFitting=1;fontFamily=Architects Daughter;fontSource=https%3A%2F%2Ffonts.googleapis.com%2Fcss%3Ffamily%3DArchitects%2BDaughter;" vertex="1" parent="1">
          <mxGeometry x="655" y="3229" width="133" height="54" as="geometry" />
        </mxCell>
        <mxCell id="0KKd5dS3s44v6GaBCIF1-117" value="BEWB10248IFA" style="rounded=1;arcSize=20;strokeWidth=2;sketch=1;hachureGap=4;jiggle=2;curveFitting=1;fontFamily=Architects Daughter;fontSource=https%3A%2F%2Ffonts.googleapis.com%2Fcss%3Ffamily%3DArchitects%2BDaughter;" vertex="1" parent="1">
          <mxGeometry x="655" y="3477" width="133" height="54" as="geometry" />
        </mxCell>
        <mxCell id="0KKd5dS3s44v6GaBCIF1-118" value="BEWBI02531FA" style="rounded=1;arcSize=20;strokeWidth=2;sketch=1;hachureGap=4;jiggle=2;curveFitting=1;fontFamily=Architects Daughter;fontSource=https%3A%2F%2Ffonts.googleapis.com%2Fcss%3Ffamily%3DArchitects%2BDaughter;" vertex="1" parent="1">
          <mxGeometry x="655" y="3333" width="133" height="54" as="geometry" />
        </mxCell>
        <mxCell id="0KKd5dS3s44v6GaBCIF1-119" value="BPLSY0102IFA" style="rounded=1;arcSize=20;strokeWidth=2;sketch=1;hachureGap=4;jiggle=2;curveFitting=1;fontFamily=Architects Daughter;fontSource=https%3A%2F%2Ffonts.googleapis.com%2Fcss%3Ffamily%3DArchitects%2BDaughter;" vertex="1" parent="1">
          <mxGeometry x="658" y="2733" width="127" height="54" as="geometry" />
        </mxCell>
        <mxCell id="0KKd5dS3s44v6GaBCIF1-120" value="BEWB10103NTM" style="rounded=1;arcSize=20;strokeWidth=2;sketch=1;hachureGap=4;jiggle=2;curveFitting=1;fontFamily=Architects Daughter;fontSource=https%3A%2F%2Ffonts.googleapis.com%2Fcss%3Ffamily%3DArchitects%2BDaughter;" vertex="1" parent="1">
          <mxGeometry x="650" y="3685" width="143" height="54" as="geometry" />
        </mxCell>
        <mxCell id="0KKd5dS3s44v6GaBCIF1-121" value="BEWBI0215IFA" style="rounded=1;arcSize=20;strokeWidth=2;sketch=1;hachureGap=4;jiggle=2;curveFitting=1;fontFamily=Architects Daughter;fontSource=https%3A%2F%2Ffonts.googleapis.com%2Fcss%3Ffamily%3DArchitects%2BDaughter;" vertex="1" parent="1">
          <mxGeometry x="657" y="3581" width="129" height="54" as="geometry" />
        </mxCell>
        <mxCell id="0KKd5dS3s44v6GaBCIF1-122" value="BEWBI0218IFA" style="rounded=1;arcSize=20;strokeWidth=2;sketch=1;hachureGap=4;jiggle=2;curveFitting=1;fontFamily=Architects Daughter;fontSource=https%3A%2F%2Ffonts.googleapis.com%2Fcss%3Ffamily%3DArchitects%2BDaughter;" vertex="1" parent="1">
          <mxGeometry x="657" y="3829" width="129" height="54" as="geometry" />
        </mxCell>
        <mxCell id="0KKd5dS3s44v6GaBCIF1-123" value="BEWBI0220IFA" style="rounded=1;arcSize=20;strokeWidth=2;sketch=1;hachureGap=4;jiggle=2;curveFitting=1;fontFamily=Architects Daughter;fontSource=https%3A%2F%2Ffonts.googleapis.com%2Fcss%3Ffamily%3DArchitects%2BDaughter;" vertex="1" parent="1">
          <mxGeometry x="657" y="3973" width="129" height="54" as="geometry" />
        </mxCell>
        <mxCell id="0KKd5dS3s44v6GaBCIF1-124" value="BEWBI0227IFA" style="rounded=1;arcSize=20;strokeWidth=2;sketch=1;hachureGap=4;jiggle=2;curveFitting=1;fontFamily=Architects Daughter;fontSource=https%3A%2F%2Ffonts.googleapis.com%2Fcss%3Ffamily%3DArchitects%2BDaughter;" vertex="1" parent="1">
          <mxGeometry x="657" y="4077" width="129" height="54" as="geometry" />
        </mxCell>
        <mxCell id="0KKd5dS3s44v6GaBCIF1-125" value="BPLCM0304IFA" style="rounded=1;arcSize=20;strokeWidth=2;sketch=1;hachureGap=4;jiggle=2;curveFitting=1;fontFamily=Architects Daughter;fontSource=https%3A%2F%2Ffonts.googleapis.com%2Fcss%3Ffamily%3DArchitects%2BDaughter;" vertex="1" parent="1">
          <mxGeometry x="656" y="2941" width="131" height="54" as="geometry" />
        </mxCell>
        <mxCell id="0KKd5dS3s44v6GaBCIF1-126" value="FMCB10001CDA" style="rounded=1;arcSize=20;strokeWidth=2;sketch=1;hachureGap=4;jiggle=2;curveFitting=1;fontFamily=Architects Daughter;fontSource=https%3A%2F%2Ffonts.googleapis.com%2Fcss%3Ffamily%3DArchitects%2BDaughter;" vertex="1" parent="1">
          <mxGeometry x="-83" y="237" width="139" height="54" as="geometry" />
        </mxCell>
        <mxCell id="0KKd5dS3s44v6GaBCIF1-127" value="FRMLM0132ΝΤΑ" style="rounded=1;arcSize=20;strokeWidth=2;sketch=1;hachureGap=4;jiggle=2;curveFitting=1;fontFamily=Architects Daughter;fontSource=https%3A%2F%2Ffonts.googleapis.com%2Fcss%3Ffamily%3DArchitects%2BDaughter;" vertex="1" parent="1">
          <mxGeometry x="-84" y="341" width="141" height="54" as="geometry" />
        </mxCell>
        <mxCell id="0KKd5dS3s44v6GaBCIF1-128" value="FRMLM0013ΝΤΑ" style="rounded=1;arcSize=20;strokeWidth=2;sketch=1;hachureGap=4;jiggle=2;curveFitting=1;fontFamily=Architects Daughter;fontSource=https%3A%2F%2Ffonts.googleapis.com%2Fcss%3Ffamily%3DArchitects%2BDaughter;" vertex="1" parent="1">
          <mxGeometry x="-84" y="445" width="141" height="54" as="geometry" />
        </mxCell>
        <mxCell id="0KKd5dS3s44v6GaBCIF1-129" value="FRMLM0130ΝΤΑ" style="rounded=1;arcSize=20;strokeWidth=2;sketch=1;hachureGap=4;jiggle=2;curveFitting=1;fontFamily=Architects Daughter;fontSource=https%3A%2F%2Ffonts.googleapis.com%2Fcss%3Ffamily%3DArchitects%2BDaughter;" vertex="1" parent="1">
          <mxGeometry x="-84" y="549" width="141" height="54" as="geometry" />
        </mxCell>
        <mxCell id="0KKd5dS3s44v6GaBCIF1-130" value="FRMLM0028ΝΤΑ" style="rounded=1;arcSize=20;strokeWidth=2;sketch=1;hachureGap=4;jiggle=2;curveFitting=1;fontFamily=Architects Daughter;fontSource=https%3A%2F%2Ffonts.googleapis.com%2Fcss%3Ffamily%3DArchitects%2BDaughter;" vertex="1" parent="1">
          <mxGeometry x="-84" y="653" width="141" height="54" as="geometry" />
        </mxCell>
        <mxCell id="0KKd5dS3s44v6GaBCIF1-131" value="FRMLM0032ΝΤΑ" style="rounded=1;arcSize=20;strokeWidth=2;sketch=1;hachureGap=4;jiggle=2;curveFitting=1;fontFamily=Architects Daughter;fontSource=https%3A%2F%2Ffonts.googleapis.com%2Fcss%3Ffamily%3DArchitects%2BDaughter;" vertex="1" parent="1">
          <mxGeometry x="-84" y="757" width="141" height="54" as="geometry" />
        </mxCell>
        <mxCell id="0KKd5dS3s44v6GaBCIF1-132" value="FPMRH0105NTA" style="rounded=1;arcSize=20;strokeWidth=2;sketch=1;hachureGap=4;jiggle=2;curveFitting=1;fontFamily=Architects Daughter;fontSource=https%3A%2F%2Ffonts.googleapis.com%2Fcss%3Ffamily%3DArchitects%2BDaughter;" vertex="1" parent="1">
          <mxGeometry x="-83" y="861" width="139" height="54" as="geometry" />
        </mxCell>
        <mxCell id="0KKd5dS3s44v6GaBCIF1-133" value="FMCBI1105CDA" style="rounded=1;arcSize=20;strokeWidth=2;sketch=1;hachureGap=4;jiggle=2;curveFitting=1;fontFamily=Architects Daughter;fontSource=https%3A%2F%2Ffonts.googleapis.com%2Fcss%3Ffamily%3DArchitects%2BDaughter;" vertex="1" parent="1">
          <mxGeometry x="-81" y="965" width="135" height="54" as="geometry" />
        </mxCell>
        <mxCell id="0KKd5dS3s44v6GaBCIF1-134" value="FAMST0231ΝΤΑ" style="rounded=1;arcSize=20;strokeWidth=2;sketch=1;hachureGap=4;jiggle=2;curveFitting=1;fontFamily=Architects Daughter;fontSource=https%3A%2F%2Ffonts.googleapis.com%2Fcss%3Ffamily%3DArchitects%2BDaughter;" vertex="1" parent="1">
          <mxGeometry x="-82" y="1069" width="137" height="54" as="geometry" />
        </mxCell>
        <mxCell id="0KKd5dS3s44v6GaBCIF1-135" value="FRMMR0203ΝΤΑ" style="rounded=1;arcSize=20;strokeWidth=2;sketch=1;hachureGap=4;jiggle=2;curveFitting=1;fontFamily=Architects Daughter;fontSource=https%3A%2F%2Ffonts.googleapis.com%2Fcss%3Ffamily%3DArchitects%2BDaughter;" vertex="1" parent="1">
          <mxGeometry x="-84" y="1173" width="142" height="54" as="geometry" />
        </mxCell>
        <mxCell id="0KKd5dS3s44v6GaBCIF1-136" value="FRMCR0201ΝΤΑ" style="rounded=1;arcSize=20;strokeWidth=2;sketch=1;hachureGap=4;jiggle=2;curveFitting=1;fontFamily=Architects Daughter;fontSource=https%3A%2F%2Ffonts.googleapis.com%2Fcss%3Ffamily%3DArchitects%2BDaughter;" vertex="1" parent="1">
          <mxGeometry x="-84" y="1277" width="140" height="54" as="geometry" />
        </mxCell>
        <mxCell id="0KKd5dS3s44v6GaBCIF1-137" value="FPEAI0301NΤΑ" style="rounded=1;arcSize=20;strokeWidth=2;sketch=1;hachureGap=4;jiggle=2;curveFitting=1;fontFamily=Architects Daughter;fontSource=https%3A%2F%2Ffonts.googleapis.com%2Fcss%3Ffamily%3DArchitects%2BDaughter;" vertex="1" parent="1">
          <mxGeometry x="-79" y="1381" width="132" height="54" as="geometry" />
        </mxCell>
        <mxCell id="0KKd5dS3s44v6GaBCIF1-138" value="FPEBI0201CDA" style="rounded=1;arcSize=20;strokeWidth=2;sketch=1;hachureGap=4;jiggle=2;curveFitting=1;fontFamily=Architects Daughter;fontSource=https%3A%2F%2Ffonts.googleapis.com%2Fcss%3Ffamily%3DArchitects%2BDaughter;" vertex="1" parent="1">
          <mxGeometry x="-79" y="1485" width="132" height="54" as="geometry" />
        </mxCell>
        <mxCell id="0KKd5dS3s44v6GaBCIF1-139" value="FRMMR0227ΝΤΑ" style="rounded=1;arcSize=20;strokeWidth=2;sketch=1;hachureGap=4;jiggle=2;curveFitting=1;fontFamily=Architects Daughter;fontSource=https%3A%2F%2Ffonts.googleapis.com%2Fcss%3Ffamily%3DArchitects%2BDaughter;" vertex="1" parent="1">
          <mxGeometry x="-84" y="1589" width="142" height="54" as="geometry" />
        </mxCell>
        <mxCell id="0KKd5dS3s44v6GaBCIF1-140" value="FRMMR0228ΝΤΑ" style="rounded=1;arcSize=20;strokeWidth=2;sketch=1;hachureGap=4;jiggle=2;curveFitting=1;fontFamily=Architects Daughter;fontSource=https%3A%2F%2Ffonts.googleapis.com%2Fcss%3Ffamily%3DArchitects%2BDaughter;" vertex="1" parent="1">
          <mxGeometry x="-84" y="1693" width="142" height="54" as="geometry" />
        </mxCell>
        <mxCell id="0KKd5dS3s44v6GaBCIF1-141" value="FPEAI0204ΝΤΑ" style="rounded=1;arcSize=20;strokeWidth=2;sketch=1;hachureGap=4;jiggle=2;curveFitting=1;fontFamily=Architects Daughter;fontSource=https%3A%2F%2Ffonts.googleapis.com%2Fcss%3Ffamily%3DArchitects%2BDaughter;" vertex="1" parent="1">
          <mxGeometry x="-79" y="1797" width="132" height="54" as="geometry" />
        </mxCell>
        <mxCell id="0KKd5dS3s44v6GaBCIF1-142" value="FMCB10005CDA" style="rounded=1;arcSize=20;strokeWidth=2;sketch=1;hachureGap=4;jiggle=2;curveFitting=1;fontFamily=Architects Daughter;fontSource=https%3A%2F%2Ffonts.googleapis.com%2Fcss%3Ffamily%3DArchitects%2BDaughter;" vertex="1" parent="1">
          <mxGeometry x="-83" y="1901" width="139" height="54" as="geometry" />
        </mxCell>
        <mxCell id="0KKd5dS3s44v6GaBCIF1-143" value="FBCCD0030CDA" style="rounded=1;arcSize=20;strokeWidth=2;sketch=1;hachureGap=4;jiggle=2;curveFitting=1;fontFamily=Architects Daughter;fontSource=https%3A%2F%2Ffonts.googleapis.com%2Fcss%3Ffamily%3DArchitects%2BDaughter;" vertex="1" parent="1">
          <mxGeometry x="-83" y="2005" width="139" height="54" as="geometry" />
        </mxCell>
        <mxCell id="0KKd5dS3s44v6GaBCIF1-144" value="FRMLM0030ΝΤΑ" style="rounded=1;arcSize=20;strokeWidth=2;sketch=1;hachureGap=4;jiggle=2;curveFitting=1;fontFamily=Architects Daughter;fontSource=https%3A%2F%2Ffonts.googleapis.com%2Fcss%3Ffamily%3DArchitects%2BDaughter;" vertex="1" parent="1">
          <mxGeometry x="-84" y="2109" width="141" height="54" as="geometry" />
        </mxCell>
        <mxCell id="0KKd5dS3s44v6GaBCIF1-145" value="FRMLM0025ΝΤΑ" style="rounded=1;arcSize=20;strokeWidth=2;sketch=1;hachureGap=4;jiggle=2;curveFitting=1;fontFamily=Architects Daughter;fontSource=https%3A%2F%2Ffonts.googleapis.com%2Fcss%3Ffamily%3DArchitects%2BDaughter;" vertex="1" parent="1">
          <mxGeometry x="-84" y="2213" width="141" height="54" as="geometry" />
        </mxCell>
        <mxCell id="0KKd5dS3s44v6GaBCIF1-146" value="FRMLM0128ΝΤΑ" style="rounded=1;arcSize=20;strokeWidth=2;sketch=1;hachureGap=4;jiggle=2;curveFitting=1;fontFamily=Architects Daughter;fontSource=https%3A%2F%2Ffonts.googleapis.com%2Fcss%3Ffamily%3DArchitects%2BDaughter;" vertex="1" parent="1">
          <mxGeometry x="-84" y="2317" width="141" height="54" as="geometry" />
        </mxCell>
        <mxCell id="0KKd5dS3s44v6GaBCIF1-147" value="FRMLM0018ΝΤΑ" style="rounded=1;arcSize=20;strokeWidth=2;sketch=1;hachureGap=4;jiggle=2;curveFitting=1;fontFamily=Architects Daughter;fontSource=https%3A%2F%2Ffonts.googleapis.com%2Fcss%3Ffamily%3DArchitects%2BDaughter;" vertex="1" parent="1">
          <mxGeometry x="-84" y="2421" width="141" height="54" as="geometry" />
        </mxCell>
        <mxCell id="0KKd5dS3s44v6GaBCIF1-148" value="FRMLM0019ΝΤΑ" style="rounded=1;arcSize=20;strokeWidth=2;sketch=1;hachureGap=4;jiggle=2;curveFitting=1;fontFamily=Architects Daughter;fontSource=https%3A%2F%2Ffonts.googleapis.com%2Fcss%3Ffamily%3DArchitects%2BDaughter;" vertex="1" parent="1">
          <mxGeometry x="-84" y="2525" width="141" height="54" as="geometry" />
        </mxCell>
        <mxCell id="0KKd5dS3s44v6GaBCIF1-149" value="FRMLM0033ΝΤΑ" style="rounded=1;arcSize=20;strokeWidth=2;sketch=1;hachureGap=4;jiggle=2;curveFitting=1;fontFamily=Architects Daughter;fontSource=https%3A%2F%2Ffonts.googleapis.com%2Fcss%3Ffamily%3DArchitects%2BDaughter;" vertex="1" parent="1">
          <mxGeometry x="-84" y="2629" width="141" height="54" as="geometry" />
        </mxCell>
        <mxCell id="0KKd5dS3s44v6GaBCIF1-150" value="FMCB10013CDA" style="rounded=1;arcSize=20;strokeWidth=2;sketch=1;hachureGap=4;jiggle=2;curveFitting=1;fontFamily=Architects Daughter;fontSource=https%3A%2F%2Ffonts.googleapis.com%2Fcss%3Ffamily%3DArchitects%2BDaughter;" vertex="1" parent="1">
          <mxGeometry x="-83" y="2733" width="139" height="54" as="geometry" />
        </mxCell>
        <mxCell id="0KKd5dS3s44v6GaBCIF1-151" value="FEWEW0012ΝΤΑ" style="rounded=1;arcSize=20;strokeWidth=2;sketch=1;hachureGap=4;jiggle=2;curveFitting=1;fontFamily=Architects Daughter;fontSource=https%3A%2F%2Ffonts.googleapis.com%2Fcss%3Ffamily%3DArchitects%2BDaughter;" vertex="1" parent="1">
          <mxGeometry x="-86" y="2941" width="145" height="54" as="geometry" />
        </mxCell>
        <mxCell id="0KKd5dS3s44v6GaBCIF1-154" value="FEIC10002NΤΑ" style="rounded=1;arcSize=20;strokeWidth=2;sketch=1;hachureGap=4;jiggle=2;curveFitting=1;fontFamily=Architects Daughter;fontSource=https%3A%2F%2Ffonts.googleapis.com%2Fcss%3Ffamily%3DArchitects%2BDaughter;" vertex="1" parent="1">
          <mxGeometry x="-79" y="3085" width="132" height="54" as="geometry" />
        </mxCell>
        <mxCell id="0KKd5dS3s44v6GaBCIF1-155" value="FEIC10301NΤΑ" style="rounded=1;arcSize=20;strokeWidth=2;sketch=1;hachureGap=4;jiggle=2;curveFitting=1;fontFamily=Architects Daughter;fontSource=https%3A%2F%2Ffonts.googleapis.com%2Fcss%3Ffamily%3DArchitects%2BDaughter;" vertex="1" parent="1">
          <mxGeometry x="-79" y="3477" width="132" height="54" as="geometry" />
        </mxCell>
        <mxCell id="0KKd5dS3s44v6GaBCIF1-156" value="FEICI0108NΤΑ" style="rounded=1;arcSize=20;strokeWidth=2;sketch=1;hachureGap=4;jiggle=2;curveFitting=1;fontFamily=Architects Daughter;fontSource=https%3A%2F%2Ffonts.googleapis.com%2Fcss%3Ffamily%3DArchitects%2BDaughter;" vertex="1" parent="1">
          <mxGeometry x="-77" y="3229" width="128" height="54" as="geometry" />
        </mxCell>
        <mxCell id="0KKd5dS3s44v6GaBCIF1-157" value="FEIIB0105NTA" style="rounded=1;arcSize=20;strokeWidth=2;sketch=1;hachureGap=4;jiggle=2;curveFitting=1;fontFamily=Architects Daughter;fontSource=https%3A%2F%2Ffonts.googleapis.com%2Fcss%3Ffamily%3DArchitects%2BDaughter;" vertex="1" parent="1">
          <mxGeometry x="-76" y="3333" width="126" height="54" as="geometry" />
        </mxCell>
        <mxCell id="0KKd5dS3s44v6GaBCIF1-158" value="FEICI0146NTA" style="rounded=1;arcSize=20;strokeWidth=2;sketch=1;hachureGap=4;jiggle=2;curveFitting=1;fontFamily=Architects Daughter;fontSource=https%3A%2F%2Ffonts.googleapis.com%2Fcss%3Ffamily%3DArchitects%2BDaughter;" vertex="1" parent="1">
          <mxGeometry x="-77" y="3685" width="126" height="54" as="geometry" />
        </mxCell>
        <mxCell id="0KKd5dS3s44v6GaBCIF1-159" value="FEICI0213NTA" style="rounded=1;arcSize=20;strokeWidth=2;sketch=1;hachureGap=4;jiggle=2;curveFitting=1;fontFamily=Architects Daughter;fontSource=https%3A%2F%2Ffonts.googleapis.com%2Fcss%3Ffamily%3DArchitects%2BDaughter;" vertex="1" parent="1">
          <mxGeometry x="-77" y="3829" width="126" height="54" as="geometry" />
        </mxCell>
        <mxCell id="0KKd5dS3s44v6GaBCIF1-161" value="" style="curved=1;startArrow=none;endArrow=block;exitX=1;exitY=0.5;entryX=0;entryY=0.5;rounded=0;sketch=1;hachureGap=4;jiggle=2;curveFitting=1;fontFamily=Architects Daughter;fontSource=https%3A%2F%2Ffonts.googleapis.com%2Fcss%3Ffamily%3DArchitects%2BDaughter;fontSize=12;startSize=8;endSize=8;" edge="1" parent="1" source="0KKd5dS3s44v6GaBCIF1-12" target="0KKd5dS3s44v6GaBCIF1-50">
          <mxGeometry relative="1" as="geometry">
            <Array as="points" />
          </mxGeometry>
        </mxCell>
        <mxCell id="0KKd5dS3s44v6GaBCIF1-162" value="" style="curved=1;startArrow=none;endArrow=block;exitX=1;exitY=0.5;entryX=0;entryY=0.5;rounded=0;sketch=1;hachureGap=4;jiggle=2;curveFitting=1;fontFamily=Architects Daughter;fontSource=https%3A%2F%2Ffonts.googleapis.com%2Fcss%3Ffamily%3DArchitects%2BDaughter;fontSize=12;startSize=8;endSize=8;" edge="1" parent="1" source="0KKd5dS3s44v6GaBCIF1-13" target="0KKd5dS3s44v6GaBCIF1-51">
          <mxGeometry relative="1" as="geometry">
            <Array as="points" />
          </mxGeometry>
        </mxCell>
        <mxCell id="0KKd5dS3s44v6GaBCIF1-163" value="" style="curved=1;startArrow=none;endArrow=block;exitX=1;exitY=0.5;entryX=0;entryY=0.5;rounded=0;sketch=1;hachureGap=4;jiggle=2;curveFitting=1;fontFamily=Architects Daughter;fontSource=https%3A%2F%2Ffonts.googleapis.com%2Fcss%3Ffamily%3DArchitects%2BDaughter;fontSize=12;startSize=8;endSize=8;" edge="1" parent="1" source="0KKd5dS3s44v6GaBCIF1-14" target="0KKd5dS3s44v6GaBCIF1-52">
          <mxGeometry relative="1" as="geometry">
            <Array as="points" />
          </mxGeometry>
        </mxCell>
        <mxCell id="0KKd5dS3s44v6GaBCIF1-164" value="" style="curved=1;startArrow=none;endArrow=block;exitX=1;exitY=0.5;entryX=0;entryY=0.5;rounded=0;sketch=1;hachureGap=4;jiggle=2;curveFitting=1;fontFamily=Architects Daughter;fontSource=https%3A%2F%2Ffonts.googleapis.com%2Fcss%3Ffamily%3DArchitects%2BDaughter;fontSize=12;startSize=8;endSize=8;" edge="1" parent="1" source="0KKd5dS3s44v6GaBCIF1-15" target="0KKd5dS3s44v6GaBCIF1-53">
          <mxGeometry relative="1" as="geometry">
            <Array as="points" />
          </mxGeometry>
        </mxCell>
        <mxCell id="0KKd5dS3s44v6GaBCIF1-165" value="" style="curved=1;startArrow=none;endArrow=block;exitX=1;exitY=0.5;entryX=0;entryY=0.5;rounded=0;sketch=1;hachureGap=4;jiggle=2;curveFitting=1;fontFamily=Architects Daughter;fontSource=https%3A%2F%2Ffonts.googleapis.com%2Fcss%3Ffamily%3DArchitects%2BDaughter;fontSize=12;startSize=8;endSize=8;" edge="1" parent="1" source="0KKd5dS3s44v6GaBCIF1-16" target="0KKd5dS3s44v6GaBCIF1-54">
          <mxGeometry relative="1" as="geometry">
            <Array as="points" />
          </mxGeometry>
        </mxCell>
        <mxCell id="0KKd5dS3s44v6GaBCIF1-166" value="" style="curved=1;startArrow=none;endArrow=block;exitX=1;exitY=0.5;entryX=0;entryY=0.5;rounded=0;sketch=1;hachureGap=4;jiggle=2;curveFitting=1;fontFamily=Architects Daughter;fontSource=https%3A%2F%2Ffonts.googleapis.com%2Fcss%3Ffamily%3DArchitects%2BDaughter;fontSize=12;startSize=8;endSize=8;" edge="1" parent="1" source="0KKd5dS3s44v6GaBCIF1-17" target="0KKd5dS3s44v6GaBCIF1-55">
          <mxGeometry relative="1" as="geometry">
            <Array as="points" />
          </mxGeometry>
        </mxCell>
        <mxCell id="0KKd5dS3s44v6GaBCIF1-167" value="" style="curved=1;startArrow=none;endArrow=block;exitX=1;exitY=0.5;entryX=0;entryY=0.5;rounded=0;sketch=1;hachureGap=4;jiggle=2;curveFitting=1;fontFamily=Architects Daughter;fontSource=https%3A%2F%2Ffonts.googleapis.com%2Fcss%3Ffamily%3DArchitects%2BDaughter;fontSize=12;startSize=8;endSize=8;" edge="1" parent="1" source="0KKd5dS3s44v6GaBCIF1-18" target="0KKd5dS3s44v6GaBCIF1-56">
          <mxGeometry relative="1" as="geometry">
            <Array as="points" />
          </mxGeometry>
        </mxCell>
        <mxCell id="0KKd5dS3s44v6GaBCIF1-168" value="" style="curved=1;startArrow=none;endArrow=block;exitX=1;exitY=0.5;entryX=0;entryY=0.5;rounded=0;sketch=1;hachureGap=4;jiggle=2;curveFitting=1;fontFamily=Architects Daughter;fontSource=https%3A%2F%2Ffonts.googleapis.com%2Fcss%3Ffamily%3DArchitects%2BDaughter;fontSize=12;startSize=8;endSize=8;" edge="1" parent="1" source="0KKd5dS3s44v6GaBCIF1-19" target="0KKd5dS3s44v6GaBCIF1-57">
          <mxGeometry relative="1" as="geometry">
            <Array as="points" />
          </mxGeometry>
        </mxCell>
        <mxCell id="0KKd5dS3s44v6GaBCIF1-169" value="" style="curved=1;startArrow=none;endArrow=block;exitX=1;exitY=0.5;entryX=0;entryY=0.5;rounded=0;sketch=1;hachureGap=4;jiggle=2;curveFitting=1;fontFamily=Architects Daughter;fontSource=https%3A%2F%2Ffonts.googleapis.com%2Fcss%3Ffamily%3DArchitects%2BDaughter;fontSize=12;startSize=8;endSize=8;" edge="1" parent="1" source="0KKd5dS3s44v6GaBCIF1-20" target="0KKd5dS3s44v6GaBCIF1-58">
          <mxGeometry relative="1" as="geometry">
            <Array as="points" />
          </mxGeometry>
        </mxCell>
        <mxCell id="0KKd5dS3s44v6GaBCIF1-170" value="" style="curved=1;startArrow=none;endArrow=block;exitX=1;exitY=0.5;entryX=0;entryY=0.5;rounded=0;sketch=1;hachureGap=4;jiggle=2;curveFitting=1;fontFamily=Architects Daughter;fontSource=https%3A%2F%2Ffonts.googleapis.com%2Fcss%3Ffamily%3DArchitects%2BDaughter;fontSize=12;startSize=8;endSize=8;" edge="1" parent="1" source="0KKd5dS3s44v6GaBCIF1-21" target="0KKd5dS3s44v6GaBCIF1-59">
          <mxGeometry relative="1" as="geometry">
            <Array as="points" />
          </mxGeometry>
        </mxCell>
        <mxCell id="0KKd5dS3s44v6GaBCIF1-171" value="" style="curved=1;startArrow=none;endArrow=block;exitX=1;exitY=0.5;entryX=0;entryY=0.5;rounded=0;sketch=1;hachureGap=4;jiggle=2;curveFitting=1;fontFamily=Architects Daughter;fontSource=https%3A%2F%2Ffonts.googleapis.com%2Fcss%3Ffamily%3DArchitects%2BDaughter;fontSize=12;startSize=8;endSize=8;" edge="1" parent="1" source="0KKd5dS3s44v6GaBCIF1-22" target="0KKd5dS3s44v6GaBCIF1-60">
          <mxGeometry relative="1" as="geometry">
            <Array as="points" />
          </mxGeometry>
        </mxCell>
        <mxCell id="0KKd5dS3s44v6GaBCIF1-172" value="" style="curved=1;startArrow=none;endArrow=block;exitX=1;exitY=0.5;entryX=0;entryY=0.5;rounded=0;sketch=1;hachureGap=4;jiggle=2;curveFitting=1;fontFamily=Architects Daughter;fontSource=https%3A%2F%2Ffonts.googleapis.com%2Fcss%3Ffamily%3DArchitects%2BDaughter;fontSize=12;startSize=8;endSize=8;" edge="1" parent="1" source="0KKd5dS3s44v6GaBCIF1-23" target="0KKd5dS3s44v6GaBCIF1-61">
          <mxGeometry relative="1" as="geometry">
            <Array as="points" />
          </mxGeometry>
        </mxCell>
        <mxCell id="0KKd5dS3s44v6GaBCIF1-173" value="" style="curved=1;startArrow=none;endArrow=block;exitX=1;exitY=0.5;entryX=0;entryY=0.5;rounded=0;sketch=1;hachureGap=4;jiggle=2;curveFitting=1;fontFamily=Architects Daughter;fontSource=https%3A%2F%2Ffonts.googleapis.com%2Fcss%3Ffamily%3DArchitects%2BDaughter;fontSize=12;startSize=8;endSize=8;" edge="1" parent="1" source="0KKd5dS3s44v6GaBCIF1-24" target="0KKd5dS3s44v6GaBCIF1-62">
          <mxGeometry relative="1" as="geometry">
            <Array as="points" />
          </mxGeometry>
        </mxCell>
        <mxCell id="0KKd5dS3s44v6GaBCIF1-174" value="" style="curved=1;startArrow=none;endArrow=block;exitX=1;exitY=0.5;entryX=0;entryY=0.5;rounded=0;sketch=1;hachureGap=4;jiggle=2;curveFitting=1;fontFamily=Architects Daughter;fontSource=https%3A%2F%2Ffonts.googleapis.com%2Fcss%3Ffamily%3DArchitects%2BDaughter;fontSize=12;startSize=8;endSize=8;" edge="1" parent="1" source="0KKd5dS3s44v6GaBCIF1-25" target="0KKd5dS3s44v6GaBCIF1-63">
          <mxGeometry relative="1" as="geometry">
            <Array as="points" />
          </mxGeometry>
        </mxCell>
        <mxCell id="0KKd5dS3s44v6GaBCIF1-175" value="" style="curved=1;startArrow=none;endArrow=block;exitX=1;exitY=0.5;entryX=0;entryY=0.5;rounded=0;sketch=1;hachureGap=4;jiggle=2;curveFitting=1;fontFamily=Architects Daughter;fontSource=https%3A%2F%2Ffonts.googleapis.com%2Fcss%3Ffamily%3DArchitects%2BDaughter;fontSize=12;startSize=8;endSize=8;" edge="1" parent="1" source="0KKd5dS3s44v6GaBCIF1-26" target="0KKd5dS3s44v6GaBCIF1-64">
          <mxGeometry relative="1" as="geometry">
            <Array as="points" />
          </mxGeometry>
        </mxCell>
        <mxCell id="0KKd5dS3s44v6GaBCIF1-176" value="" style="curved=1;startArrow=none;endArrow=block;exitX=1;exitY=0.5;entryX=0;entryY=0.5;rounded=0;sketch=1;hachureGap=4;jiggle=2;curveFitting=1;fontFamily=Architects Daughter;fontSource=https%3A%2F%2Ffonts.googleapis.com%2Fcss%3Ffamily%3DArchitects%2BDaughter;fontSize=12;startSize=8;endSize=8;" edge="1" parent="1" source="0KKd5dS3s44v6GaBCIF1-27" target="0KKd5dS3s44v6GaBCIF1-65">
          <mxGeometry relative="1" as="geometry">
            <Array as="points" />
          </mxGeometry>
        </mxCell>
        <mxCell id="0KKd5dS3s44v6GaBCIF1-177" value="" style="curved=1;startArrow=none;endArrow=block;exitX=1;exitY=0.5;entryX=0;entryY=0.5;rounded=0;sketch=1;hachureGap=4;jiggle=2;curveFitting=1;fontFamily=Architects Daughter;fontSource=https%3A%2F%2Ffonts.googleapis.com%2Fcss%3Ffamily%3DArchitects%2BDaughter;fontSize=12;startSize=8;endSize=8;" edge="1" parent="1" source="0KKd5dS3s44v6GaBCIF1-28" target="0KKd5dS3s44v6GaBCIF1-66">
          <mxGeometry relative="1" as="geometry">
            <Array as="points" />
          </mxGeometry>
        </mxCell>
        <mxCell id="0KKd5dS3s44v6GaBCIF1-178" value="" style="curved=1;startArrow=none;endArrow=block;exitX=1;exitY=0.5;entryX=0;entryY=0.5;rounded=0;sketch=1;hachureGap=4;jiggle=2;curveFitting=1;fontFamily=Architects Daughter;fontSource=https%3A%2F%2Ffonts.googleapis.com%2Fcss%3Ffamily%3DArchitects%2BDaughter;fontSize=12;startSize=8;endSize=8;" edge="1" parent="1" source="0KKd5dS3s44v6GaBCIF1-29" target="0KKd5dS3s44v6GaBCIF1-67">
          <mxGeometry relative="1" as="geometry">
            <Array as="points" />
          </mxGeometry>
        </mxCell>
        <mxCell id="0KKd5dS3s44v6GaBCIF1-179" value="" style="curved=1;startArrow=none;endArrow=block;exitX=1;exitY=0.5;entryX=0;entryY=0.5;rounded=0;sketch=1;hachureGap=4;jiggle=2;curveFitting=1;fontFamily=Architects Daughter;fontSource=https%3A%2F%2Ffonts.googleapis.com%2Fcss%3Ffamily%3DArchitects%2BDaughter;fontSize=12;startSize=8;endSize=8;" edge="1" parent="1" source="0KKd5dS3s44v6GaBCIF1-30" target="0KKd5dS3s44v6GaBCIF1-68">
          <mxGeometry relative="1" as="geometry">
            <Array as="points" />
          </mxGeometry>
        </mxCell>
        <mxCell id="0KKd5dS3s44v6GaBCIF1-180" value="" style="curved=1;startArrow=none;endArrow=block;exitX=1;exitY=0.5;entryX=0;entryY=0.5;rounded=0;sketch=1;hachureGap=4;jiggle=2;curveFitting=1;fontFamily=Architects Daughter;fontSource=https%3A%2F%2Ffonts.googleapis.com%2Fcss%3Ffamily%3DArchitects%2BDaughter;fontSize=12;startSize=8;endSize=8;" edge="1" parent="1" source="0KKd5dS3s44v6GaBCIF1-31" target="0KKd5dS3s44v6GaBCIF1-69">
          <mxGeometry relative="1" as="geometry">
            <Array as="points" />
          </mxGeometry>
        </mxCell>
        <mxCell id="0KKd5dS3s44v6GaBCIF1-181" value="" style="curved=1;startArrow=none;endArrow=block;exitX=1;exitY=0.5;entryX=0;entryY=0.5;rounded=0;sketch=1;hachureGap=4;jiggle=2;curveFitting=1;fontFamily=Architects Daughter;fontSource=https%3A%2F%2Ffonts.googleapis.com%2Fcss%3Ffamily%3DArchitects%2BDaughter;fontSize=12;startSize=8;endSize=8;" edge="1" parent="1" source="0KKd5dS3s44v6GaBCIF1-32" target="0KKd5dS3s44v6GaBCIF1-70">
          <mxGeometry relative="1" as="geometry">
            <Array as="points" />
          </mxGeometry>
        </mxCell>
        <mxCell id="0KKd5dS3s44v6GaBCIF1-182" value="" style="curved=1;startArrow=none;endArrow=block;exitX=1;exitY=0.5;entryX=0;entryY=0.5;rounded=0;sketch=1;hachureGap=4;jiggle=2;curveFitting=1;fontFamily=Architects Daughter;fontSource=https%3A%2F%2Ffonts.googleapis.com%2Fcss%3Ffamily%3DArchitects%2BDaughter;fontSize=12;startSize=8;endSize=8;" edge="1" parent="1" source="0KKd5dS3s44v6GaBCIF1-33" target="0KKd5dS3s44v6GaBCIF1-71">
          <mxGeometry relative="1" as="geometry">
            <Array as="points" />
          </mxGeometry>
        </mxCell>
        <mxCell id="0KKd5dS3s44v6GaBCIF1-183" value="" style="curved=1;startArrow=none;endArrow=block;exitX=1;exitY=0.5;entryX=0;entryY=0.5;rounded=0;sketch=1;hachureGap=4;jiggle=2;curveFitting=1;fontFamily=Architects Daughter;fontSource=https%3A%2F%2Ffonts.googleapis.com%2Fcss%3Ffamily%3DArchitects%2BDaughter;fontSize=12;startSize=8;endSize=8;" edge="1" parent="1" source="0KKd5dS3s44v6GaBCIF1-34" target="0KKd5dS3s44v6GaBCIF1-72">
          <mxGeometry relative="1" as="geometry">
            <Array as="points" />
          </mxGeometry>
        </mxCell>
        <mxCell id="0KKd5dS3s44v6GaBCIF1-184" value="" style="curved=1;startArrow=none;endArrow=block;exitX=1;exitY=0.5;entryX=0;entryY=0.5;rounded=0;sketch=1;hachureGap=4;jiggle=2;curveFitting=1;fontFamily=Architects Daughter;fontSource=https%3A%2F%2Ffonts.googleapis.com%2Fcss%3Ffamily%3DArchitects%2BDaughter;fontSize=12;startSize=8;endSize=8;" edge="1" parent="1" source="0KKd5dS3s44v6GaBCIF1-35" target="0KKd5dS3s44v6GaBCIF1-73">
          <mxGeometry relative="1" as="geometry">
            <Array as="points" />
          </mxGeometry>
        </mxCell>
        <mxCell id="0KKd5dS3s44v6GaBCIF1-185" value="" style="curved=1;startArrow=none;endArrow=block;exitX=1;exitY=0.5;entryX=0;entryY=0.5;rounded=0;sketch=1;hachureGap=4;jiggle=2;curveFitting=1;fontFamily=Architects Daughter;fontSource=https%3A%2F%2Ffonts.googleapis.com%2Fcss%3Ffamily%3DArchitects%2BDaughter;fontSize=12;startSize=8;endSize=8;" edge="1" parent="1" source="0KKd5dS3s44v6GaBCIF1-36" target="0KKd5dS3s44v6GaBCIF1-74">
          <mxGeometry relative="1" as="geometry">
            <Array as="points" />
          </mxGeometry>
        </mxCell>
        <mxCell id="0KKd5dS3s44v6GaBCIF1-186" value="" style="curved=1;startArrow=none;endArrow=block;exitX=1;exitY=0.5;entryX=0;entryY=0.5;rounded=0;sketch=1;hachureGap=4;jiggle=2;curveFitting=1;fontFamily=Architects Daughter;fontSource=https%3A%2F%2Ffonts.googleapis.com%2Fcss%3Ffamily%3DArchitects%2BDaughter;fontSize=12;startSize=8;endSize=8;" edge="1" parent="1" source="0KKd5dS3s44v6GaBCIF1-37" target="0KKd5dS3s44v6GaBCIF1-75">
          <mxGeometry relative="1" as="geometry">
            <Array as="points" />
          </mxGeometry>
        </mxCell>
        <mxCell id="0KKd5dS3s44v6GaBCIF1-187" value="" style="curved=1;startArrow=none;endArrow=block;exitX=1;exitY=0.5;entryX=0;entryY=0.5;rounded=0;sketch=1;hachureGap=4;jiggle=2;curveFitting=1;fontFamily=Architects Daughter;fontSource=https%3A%2F%2Ffonts.googleapis.com%2Fcss%3Ffamily%3DArchitects%2BDaughter;fontSize=12;startSize=8;endSize=8;" edge="1" parent="1" source="0KKd5dS3s44v6GaBCIF1-38" target="0KKd5dS3s44v6GaBCIF1-76">
          <mxGeometry relative="1" as="geometry">
            <Array as="points" />
          </mxGeometry>
        </mxCell>
        <mxCell id="0KKd5dS3s44v6GaBCIF1-188" value="" style="curved=1;startArrow=none;endArrow=block;exitX=1;exitY=0.5;entryX=0;entryY=0.5;rounded=0;sketch=1;hachureGap=4;jiggle=2;curveFitting=1;fontFamily=Architects Daughter;fontSource=https%3A%2F%2Ffonts.googleapis.com%2Fcss%3Ffamily%3DArchitects%2BDaughter;fontSize=12;startSize=8;endSize=8;" edge="1" parent="1" source="0KKd5dS3s44v6GaBCIF1-39" target="0KKd5dS3s44v6GaBCIF1-77">
          <mxGeometry relative="1" as="geometry">
            <Array as="points" />
          </mxGeometry>
        </mxCell>
        <mxCell id="0KKd5dS3s44v6GaBCIF1-189" value="" style="curved=1;startArrow=none;endArrow=block;exitX=1;exitY=0.5;entryX=0;entryY=0.5;rounded=0;sketch=1;hachureGap=4;jiggle=2;curveFitting=1;fontFamily=Architects Daughter;fontSource=https%3A%2F%2Ffonts.googleapis.com%2Fcss%3Ffamily%3DArchitects%2BDaughter;fontSize=12;startSize=8;endSize=8;" edge="1" parent="1" source="0KKd5dS3s44v6GaBCIF1-40" target="0KKd5dS3s44v6GaBCIF1-78">
          <mxGeometry relative="1" as="geometry">
            <Array as="points" />
          </mxGeometry>
        </mxCell>
        <mxCell id="0KKd5dS3s44v6GaBCIF1-190" value="" style="curved=1;startArrow=none;endArrow=block;exitX=1;exitY=0.5;entryX=0;entryY=0.5;rounded=0;sketch=1;hachureGap=4;jiggle=2;curveFitting=1;fontFamily=Architects Daughter;fontSource=https%3A%2F%2Ffonts.googleapis.com%2Fcss%3Ffamily%3DArchitects%2BDaughter;fontSize=12;startSize=8;endSize=8;" edge="1" parent="1" source="0KKd5dS3s44v6GaBCIF1-41" target="0KKd5dS3s44v6GaBCIF1-79">
          <mxGeometry relative="1" as="geometry">
            <Array as="points" />
          </mxGeometry>
        </mxCell>
        <mxCell id="0KKd5dS3s44v6GaBCIF1-191" value="" style="curved=1;startArrow=none;endArrow=block;exitX=1;exitY=0.5;entryX=0;entryY=0.5;rounded=0;sketch=1;hachureGap=4;jiggle=2;curveFitting=1;fontFamily=Architects Daughter;fontSource=https%3A%2F%2Ffonts.googleapis.com%2Fcss%3Ffamily%3DArchitects%2BDaughter;fontSize=12;startSize=8;endSize=8;" edge="1" parent="1" source="0KKd5dS3s44v6GaBCIF1-42" target="0KKd5dS3s44v6GaBCIF1-80">
          <mxGeometry relative="1" as="geometry">
            <Array as="points" />
          </mxGeometry>
        </mxCell>
        <mxCell id="0KKd5dS3s44v6GaBCIF1-192" value="" style="curved=1;startArrow=none;endArrow=block;exitX=1;exitY=0.5;entryX=0;entryY=0.5;rounded=0;sketch=1;hachureGap=4;jiggle=2;curveFitting=1;fontFamily=Architects Daughter;fontSource=https%3A%2F%2Ffonts.googleapis.com%2Fcss%3Ffamily%3DArchitects%2BDaughter;fontSize=12;startSize=8;endSize=8;" edge="1" parent="1" source="0KKd5dS3s44v6GaBCIF1-43" target="0KKd5dS3s44v6GaBCIF1-81">
          <mxGeometry relative="1" as="geometry">
            <Array as="points" />
          </mxGeometry>
        </mxCell>
        <mxCell id="0KKd5dS3s44v6GaBCIF1-193" value="" style="curved=1;startArrow=none;endArrow=block;exitX=1;exitY=0.5;entryX=0;entryY=0.5;rounded=0;sketch=1;hachureGap=4;jiggle=2;curveFitting=1;fontFamily=Architects Daughter;fontSource=https%3A%2F%2Ffonts.googleapis.com%2Fcss%3Ffamily%3DArchitects%2BDaughter;fontSize=12;startSize=8;endSize=8;" edge="1" parent="1" source="0KKd5dS3s44v6GaBCIF1-44" target="0KKd5dS3s44v6GaBCIF1-82">
          <mxGeometry relative="1" as="geometry">
            <Array as="points" />
          </mxGeometry>
        </mxCell>
        <mxCell id="0KKd5dS3s44v6GaBCIF1-194" value="" style="curved=1;startArrow=none;endArrow=block;exitX=1;exitY=0.5;entryX=0;entryY=0.5;rounded=0;sketch=1;hachureGap=4;jiggle=2;curveFitting=1;fontFamily=Architects Daughter;fontSource=https%3A%2F%2Ffonts.googleapis.com%2Fcss%3Ffamily%3DArchitects%2BDaughter;fontSize=12;startSize=8;endSize=8;" edge="1" parent="1" source="0KKd5dS3s44v6GaBCIF1-45" target="0KKd5dS3s44v6GaBCIF1-83">
          <mxGeometry relative="1" as="geometry">
            <Array as="points" />
          </mxGeometry>
        </mxCell>
        <mxCell id="0KKd5dS3s44v6GaBCIF1-195" value="" style="curved=1;startArrow=none;endArrow=block;exitX=1;exitY=0.5;entryX=0;entryY=0.5;rounded=0;sketch=1;hachureGap=4;jiggle=2;curveFitting=1;fontFamily=Architects Daughter;fontSource=https%3A%2F%2Ffonts.googleapis.com%2Fcss%3Ffamily%3DArchitects%2BDaughter;fontSize=12;startSize=8;endSize=8;" edge="1" parent="1" source="0KKd5dS3s44v6GaBCIF1-46" target="0KKd5dS3s44v6GaBCIF1-84">
          <mxGeometry relative="1" as="geometry">
            <Array as="points" />
          </mxGeometry>
        </mxCell>
        <mxCell id="0KKd5dS3s44v6GaBCIF1-196" value="" style="curved=1;startArrow=none;endArrow=block;exitX=1.01;exitY=0.5;entryX=0;entryY=0.5;rounded=0;sketch=1;hachureGap=4;jiggle=2;curveFitting=1;fontFamily=Architects Daughter;fontSource=https%3A%2F%2Ffonts.googleapis.com%2Fcss%3Ffamily%3DArchitects%2BDaughter;fontSize=12;startSize=8;endSize=8;" edge="1" parent="1" source="0KKd5dS3s44v6GaBCIF1-47" target="0KKd5dS3s44v6GaBCIF1-85">
          <mxGeometry relative="1" as="geometry">
            <Array as="points" />
          </mxGeometry>
        </mxCell>
        <mxCell id="0KKd5dS3s44v6GaBCIF1-197" value="" style="curved=1;startArrow=none;endArrow=block;exitX=1.01;exitY=0.5;entryX=0;entryY=0.5;rounded=0;sketch=1;hachureGap=4;jiggle=2;curveFitting=1;fontFamily=Architects Daughter;fontSource=https%3A%2F%2Ffonts.googleapis.com%2Fcss%3Ffamily%3DArchitects%2BDaughter;fontSize=12;startSize=8;endSize=8;" edge="1" parent="1" source="0KKd5dS3s44v6GaBCIF1-48" target="0KKd5dS3s44v6GaBCIF1-86">
          <mxGeometry relative="1" as="geometry">
            <Array as="points" />
          </mxGeometry>
        </mxCell>
        <mxCell id="0KKd5dS3s44v6GaBCIF1-198" value="" style="curved=1;startArrow=none;endArrow=block;exitX=1;exitY=0.5;entryX=0;entryY=0.5;rounded=0;sketch=1;hachureGap=4;jiggle=2;curveFitting=1;fontFamily=Architects Daughter;fontSource=https%3A%2F%2Ffonts.googleapis.com%2Fcss%3Ffamily%3DArchitects%2BDaughter;fontSize=12;startSize=8;endSize=8;" edge="1" parent="1" source="0KKd5dS3s44v6GaBCIF1-49" target="0KKd5dS3s44v6GaBCIF1-87">
          <mxGeometry relative="1" as="geometry">
            <Array as="points" />
          </mxGeometry>
        </mxCell>
        <mxCell id="0KKd5dS3s44v6GaBCIF1-199" value="" style="curved=1;startArrow=none;endArrow=block;exitX=1;exitY=0.5;entryX=0;entryY=0.5;rounded=0;sketch=1;hachureGap=4;jiggle=2;curveFitting=1;fontFamily=Architects Daughter;fontSource=https%3A%2F%2Ffonts.googleapis.com%2Fcss%3Ffamily%3DArchitects%2BDaughter;fontSize=12;startSize=8;endSize=8;" edge="1" parent="1" source="0KKd5dS3s44v6GaBCIF1-50" target="0KKd5dS3s44v6GaBCIF1-88">
          <mxGeometry relative="1" as="geometry">
            <Array as="points" />
          </mxGeometry>
        </mxCell>
        <mxCell id="0KKd5dS3s44v6GaBCIF1-200" value="" style="curved=1;startArrow=none;endArrow=block;exitX=1;exitY=0.5;entryX=0;entryY=0.5;rounded=0;sketch=1;hachureGap=4;jiggle=2;curveFitting=1;fontFamily=Architects Daughter;fontSource=https%3A%2F%2Ffonts.googleapis.com%2Fcss%3Ffamily%3DArchitects%2BDaughter;fontSize=12;startSize=8;endSize=8;" edge="1" parent="1" source="0KKd5dS3s44v6GaBCIF1-51" target="0KKd5dS3s44v6GaBCIF1-89">
          <mxGeometry relative="1" as="geometry">
            <Array as="points" />
          </mxGeometry>
        </mxCell>
        <mxCell id="0KKd5dS3s44v6GaBCIF1-201" value="" style="curved=1;startArrow=none;endArrow=block;exitX=1;exitY=0.5;entryX=0;entryY=0.5;rounded=0;sketch=1;hachureGap=4;jiggle=2;curveFitting=1;fontFamily=Architects Daughter;fontSource=https%3A%2F%2Ffonts.googleapis.com%2Fcss%3Ffamily%3DArchitects%2BDaughter;fontSize=12;startSize=8;endSize=8;" edge="1" parent="1" source="0KKd5dS3s44v6GaBCIF1-52" target="0KKd5dS3s44v6GaBCIF1-90">
          <mxGeometry relative="1" as="geometry">
            <Array as="points" />
          </mxGeometry>
        </mxCell>
        <mxCell id="0KKd5dS3s44v6GaBCIF1-202" value="" style="curved=1;startArrow=none;endArrow=block;exitX=1;exitY=0.5;entryX=0;entryY=0.5;rounded=0;sketch=1;hachureGap=4;jiggle=2;curveFitting=1;fontFamily=Architects Daughter;fontSource=https%3A%2F%2Ffonts.googleapis.com%2Fcss%3Ffamily%3DArchitects%2BDaughter;fontSize=12;startSize=8;endSize=8;" edge="1" parent="1" source="0KKd5dS3s44v6GaBCIF1-53" target="0KKd5dS3s44v6GaBCIF1-91">
          <mxGeometry relative="1" as="geometry">
            <Array as="points" />
          </mxGeometry>
        </mxCell>
        <mxCell id="0KKd5dS3s44v6GaBCIF1-203" value="" style="curved=1;startArrow=none;endArrow=block;exitX=1;exitY=0.5;entryX=0;entryY=0.5;rounded=0;sketch=1;hachureGap=4;jiggle=2;curveFitting=1;fontFamily=Architects Daughter;fontSource=https%3A%2F%2Ffonts.googleapis.com%2Fcss%3Ffamily%3DArchitects%2BDaughter;fontSize=12;startSize=8;endSize=8;" edge="1" parent="1" source="0KKd5dS3s44v6GaBCIF1-54" target="0KKd5dS3s44v6GaBCIF1-92">
          <mxGeometry relative="1" as="geometry">
            <Array as="points" />
          </mxGeometry>
        </mxCell>
        <mxCell id="0KKd5dS3s44v6GaBCIF1-204" value="" style="curved=1;startArrow=none;endArrow=block;exitX=1;exitY=0.5;entryX=0;entryY=0.5;rounded=0;sketch=1;hachureGap=4;jiggle=2;curveFitting=1;fontFamily=Architects Daughter;fontSource=https%3A%2F%2Ffonts.googleapis.com%2Fcss%3Ffamily%3DArchitects%2BDaughter;fontSize=12;startSize=8;endSize=8;" edge="1" parent="1" source="0KKd5dS3s44v6GaBCIF1-55" target="0KKd5dS3s44v6GaBCIF1-93">
          <mxGeometry relative="1" as="geometry">
            <Array as="points" />
          </mxGeometry>
        </mxCell>
        <mxCell id="0KKd5dS3s44v6GaBCIF1-205" value="" style="curved=1;startArrow=none;endArrow=block;exitX=1;exitY=0.5;entryX=0;entryY=0.5;rounded=0;sketch=1;hachureGap=4;jiggle=2;curveFitting=1;fontFamily=Architects Daughter;fontSource=https%3A%2F%2Ffonts.googleapis.com%2Fcss%3Ffamily%3DArchitects%2BDaughter;fontSize=12;startSize=8;endSize=8;" edge="1" parent="1" source="0KKd5dS3s44v6GaBCIF1-56" target="0KKd5dS3s44v6GaBCIF1-94">
          <mxGeometry relative="1" as="geometry">
            <Array as="points" />
          </mxGeometry>
        </mxCell>
        <mxCell id="0KKd5dS3s44v6GaBCIF1-206" value="" style="curved=1;startArrow=none;endArrow=block;exitX=1;exitY=0.5;entryX=0;entryY=0.5;rounded=0;sketch=1;hachureGap=4;jiggle=2;curveFitting=1;fontFamily=Architects Daughter;fontSource=https%3A%2F%2Ffonts.googleapis.com%2Fcss%3Ffamily%3DArchitects%2BDaughter;fontSize=12;startSize=8;endSize=8;" edge="1" parent="1" source="0KKd5dS3s44v6GaBCIF1-57" target="0KKd5dS3s44v6GaBCIF1-95">
          <mxGeometry relative="1" as="geometry">
            <Array as="points" />
          </mxGeometry>
        </mxCell>
        <mxCell id="0KKd5dS3s44v6GaBCIF1-207" value="" style="curved=1;startArrow=none;endArrow=block;exitX=1;exitY=0.5;entryX=0;entryY=0.5;rounded=0;sketch=1;hachureGap=4;jiggle=2;curveFitting=1;fontFamily=Architects Daughter;fontSource=https%3A%2F%2Ffonts.googleapis.com%2Fcss%3Ffamily%3DArchitects%2BDaughter;fontSize=12;startSize=8;endSize=8;" edge="1" parent="1" source="0KKd5dS3s44v6GaBCIF1-58" target="0KKd5dS3s44v6GaBCIF1-96">
          <mxGeometry relative="1" as="geometry">
            <Array as="points" />
          </mxGeometry>
        </mxCell>
        <mxCell id="0KKd5dS3s44v6GaBCIF1-208" value="" style="curved=1;startArrow=none;endArrow=block;exitX=1;exitY=0.5;entryX=0;entryY=0.5;rounded=0;sketch=1;hachureGap=4;jiggle=2;curveFitting=1;fontFamily=Architects Daughter;fontSource=https%3A%2F%2Ffonts.googleapis.com%2Fcss%3Ffamily%3DArchitects%2BDaughter;fontSize=12;startSize=8;endSize=8;" edge="1" parent="1" source="0KKd5dS3s44v6GaBCIF1-59" target="0KKd5dS3s44v6GaBCIF1-97">
          <mxGeometry relative="1" as="geometry">
            <Array as="points" />
          </mxGeometry>
        </mxCell>
        <mxCell id="0KKd5dS3s44v6GaBCIF1-209" value="" style="curved=1;startArrow=none;endArrow=block;exitX=1;exitY=0.5;entryX=0;entryY=0.5;rounded=0;sketch=1;hachureGap=4;jiggle=2;curveFitting=1;fontFamily=Architects Daughter;fontSource=https%3A%2F%2Ffonts.googleapis.com%2Fcss%3Ffamily%3DArchitects%2BDaughter;fontSize=12;startSize=8;endSize=8;" edge="1" parent="1" source="0KKd5dS3s44v6GaBCIF1-60" target="0KKd5dS3s44v6GaBCIF1-98">
          <mxGeometry relative="1" as="geometry">
            <Array as="points" />
          </mxGeometry>
        </mxCell>
        <mxCell id="0KKd5dS3s44v6GaBCIF1-210" value="" style="curved=1;startArrow=none;endArrow=block;exitX=1;exitY=0.5;entryX=0;entryY=0.5;rounded=0;sketch=1;hachureGap=4;jiggle=2;curveFitting=1;fontFamily=Architects Daughter;fontSource=https%3A%2F%2Ffonts.googleapis.com%2Fcss%3Ffamily%3DArchitects%2BDaughter;fontSize=12;startSize=8;endSize=8;" edge="1" parent="1" source="0KKd5dS3s44v6GaBCIF1-61" target="0KKd5dS3s44v6GaBCIF1-99">
          <mxGeometry relative="1" as="geometry">
            <Array as="points" />
          </mxGeometry>
        </mxCell>
        <mxCell id="0KKd5dS3s44v6GaBCIF1-211" value="" style="curved=1;startArrow=none;endArrow=block;exitX=1;exitY=0.5;entryX=0;entryY=0.5;rounded=0;sketch=1;hachureGap=4;jiggle=2;curveFitting=1;fontFamily=Architects Daughter;fontSource=https%3A%2F%2Ffonts.googleapis.com%2Fcss%3Ffamily%3DArchitects%2BDaughter;fontSize=12;startSize=8;endSize=8;" edge="1" parent="1" source="0KKd5dS3s44v6GaBCIF1-62" target="0KKd5dS3s44v6GaBCIF1-100">
          <mxGeometry relative="1" as="geometry">
            <Array as="points" />
          </mxGeometry>
        </mxCell>
        <mxCell id="0KKd5dS3s44v6GaBCIF1-212" value="" style="curved=1;startArrow=none;endArrow=block;exitX=1;exitY=0.5;entryX=0;entryY=0.5;rounded=0;sketch=1;hachureGap=4;jiggle=2;curveFitting=1;fontFamily=Architects Daughter;fontSource=https%3A%2F%2Ffonts.googleapis.com%2Fcss%3Ffamily%3DArchitects%2BDaughter;fontSize=12;startSize=8;endSize=8;" edge="1" parent="1" source="0KKd5dS3s44v6GaBCIF1-63" target="0KKd5dS3s44v6GaBCIF1-101">
          <mxGeometry relative="1" as="geometry">
            <Array as="points" />
          </mxGeometry>
        </mxCell>
        <mxCell id="0KKd5dS3s44v6GaBCIF1-213" value="" style="curved=1;startArrow=none;endArrow=block;exitX=1;exitY=0.5;entryX=0;entryY=0.5;rounded=0;sketch=1;hachureGap=4;jiggle=2;curveFitting=1;fontFamily=Architects Daughter;fontSource=https%3A%2F%2Ffonts.googleapis.com%2Fcss%3Ffamily%3DArchitects%2BDaughter;fontSize=12;startSize=8;endSize=8;" edge="1" parent="1" source="0KKd5dS3s44v6GaBCIF1-64" target="0KKd5dS3s44v6GaBCIF1-102">
          <mxGeometry relative="1" as="geometry">
            <Array as="points" />
          </mxGeometry>
        </mxCell>
        <mxCell id="0KKd5dS3s44v6GaBCIF1-214" value="" style="curved=1;startArrow=none;endArrow=block;exitX=1;exitY=0.5;entryX=0;entryY=0.5;rounded=0;sketch=1;hachureGap=4;jiggle=2;curveFitting=1;fontFamily=Architects Daughter;fontSource=https%3A%2F%2Ffonts.googleapis.com%2Fcss%3Ffamily%3DArchitects%2BDaughter;fontSize=12;startSize=8;endSize=8;" edge="1" parent="1" source="0KKd5dS3s44v6GaBCIF1-65" target="0KKd5dS3s44v6GaBCIF1-103">
          <mxGeometry relative="1" as="geometry">
            <Array as="points" />
          </mxGeometry>
        </mxCell>
        <mxCell id="0KKd5dS3s44v6GaBCIF1-215" value="" style="curved=1;startArrow=none;endArrow=block;exitX=1;exitY=0.5;entryX=0;entryY=0.5;rounded=0;sketch=1;hachureGap=4;jiggle=2;curveFitting=1;fontFamily=Architects Daughter;fontSource=https%3A%2F%2Ffonts.googleapis.com%2Fcss%3Ffamily%3DArchitects%2BDaughter;fontSize=12;startSize=8;endSize=8;" edge="1" parent="1" source="0KKd5dS3s44v6GaBCIF1-66" target="0KKd5dS3s44v6GaBCIF1-104">
          <mxGeometry relative="1" as="geometry">
            <Array as="points" />
          </mxGeometry>
        </mxCell>
        <mxCell id="0KKd5dS3s44v6GaBCIF1-216" value="" style="curved=1;startArrow=none;endArrow=block;exitX=1;exitY=0.5;entryX=0;entryY=0.5;rounded=0;sketch=1;hachureGap=4;jiggle=2;curveFitting=1;fontFamily=Architects Daughter;fontSource=https%3A%2F%2Ffonts.googleapis.com%2Fcss%3Ffamily%3DArchitects%2BDaughter;fontSize=12;startSize=8;endSize=8;" edge="1" parent="1" source="0KKd5dS3s44v6GaBCIF1-67" target="0KKd5dS3s44v6GaBCIF1-105">
          <mxGeometry relative="1" as="geometry">
            <Array as="points" />
          </mxGeometry>
        </mxCell>
        <mxCell id="0KKd5dS3s44v6GaBCIF1-217" value="" style="curved=1;startArrow=none;endArrow=block;exitX=1;exitY=0.5;entryX=0;entryY=0.5;rounded=0;sketch=1;hachureGap=4;jiggle=2;curveFitting=1;fontFamily=Architects Daughter;fontSource=https%3A%2F%2Ffonts.googleapis.com%2Fcss%3Ffamily%3DArchitects%2BDaughter;fontSize=12;startSize=8;endSize=8;" edge="1" parent="1" source="0KKd5dS3s44v6GaBCIF1-68" target="0KKd5dS3s44v6GaBCIF1-106">
          <mxGeometry relative="1" as="geometry">
            <Array as="points" />
          </mxGeometry>
        </mxCell>
        <mxCell id="0KKd5dS3s44v6GaBCIF1-218" value="" style="curved=1;startArrow=none;endArrow=block;exitX=1;exitY=0.5;entryX=0;entryY=0.5;rounded=0;sketch=1;hachureGap=4;jiggle=2;curveFitting=1;fontFamily=Architects Daughter;fontSource=https%3A%2F%2Ffonts.googleapis.com%2Fcss%3Ffamily%3DArchitects%2BDaughter;fontSize=12;startSize=8;endSize=8;" edge="1" parent="1" source="0KKd5dS3s44v6GaBCIF1-69" target="0KKd5dS3s44v6GaBCIF1-107">
          <mxGeometry relative="1" as="geometry">
            <Array as="points" />
          </mxGeometry>
        </mxCell>
        <mxCell id="0KKd5dS3s44v6GaBCIF1-219" value="" style="curved=1;startArrow=none;endArrow=block;exitX=1;exitY=0.5;entryX=0;entryY=0.5;rounded=0;sketch=1;hachureGap=4;jiggle=2;curveFitting=1;fontFamily=Architects Daughter;fontSource=https%3A%2F%2Ffonts.googleapis.com%2Fcss%3Ffamily%3DArchitects%2BDaughter;fontSize=12;startSize=8;endSize=8;" edge="1" parent="1" source="0KKd5dS3s44v6GaBCIF1-70" target="0KKd5dS3s44v6GaBCIF1-108">
          <mxGeometry relative="1" as="geometry">
            <Array as="points" />
          </mxGeometry>
        </mxCell>
        <mxCell id="0KKd5dS3s44v6GaBCIF1-220" value="" style="curved=1;startArrow=none;endArrow=block;exitX=1;exitY=0.5;entryX=0;entryY=0.5;rounded=0;sketch=1;hachureGap=4;jiggle=2;curveFitting=1;fontFamily=Architects Daughter;fontSource=https%3A%2F%2Ffonts.googleapis.com%2Fcss%3Ffamily%3DArchitects%2BDaughter;fontSize=12;startSize=8;endSize=8;" edge="1" parent="1" source="0KKd5dS3s44v6GaBCIF1-71" target="0KKd5dS3s44v6GaBCIF1-109">
          <mxGeometry relative="1" as="geometry">
            <Array as="points" />
          </mxGeometry>
        </mxCell>
        <mxCell id="0KKd5dS3s44v6GaBCIF1-221" value="" style="curved=1;startArrow=none;endArrow=block;exitX=1;exitY=0.5;entryX=0;entryY=0.5;rounded=0;sketch=1;hachureGap=4;jiggle=2;curveFitting=1;fontFamily=Architects Daughter;fontSource=https%3A%2F%2Ffonts.googleapis.com%2Fcss%3Ffamily%3DArchitects%2BDaughter;fontSize=12;startSize=8;endSize=8;" edge="1" parent="1" source="0KKd5dS3s44v6GaBCIF1-72" target="0KKd5dS3s44v6GaBCIF1-110">
          <mxGeometry relative="1" as="geometry">
            <Array as="points" />
          </mxGeometry>
        </mxCell>
        <mxCell id="0KKd5dS3s44v6GaBCIF1-222" value="" style="curved=1;startArrow=none;endArrow=block;exitX=1;exitY=0.5;entryX=0;entryY=0.5;rounded=0;sketch=1;hachureGap=4;jiggle=2;curveFitting=1;fontFamily=Architects Daughter;fontSource=https%3A%2F%2Ffonts.googleapis.com%2Fcss%3Ffamily%3DArchitects%2BDaughter;fontSize=12;startSize=8;endSize=8;" edge="1" parent="1" source="0KKd5dS3s44v6GaBCIF1-73" target="0KKd5dS3s44v6GaBCIF1-111">
          <mxGeometry relative="1" as="geometry">
            <Array as="points" />
          </mxGeometry>
        </mxCell>
        <mxCell id="0KKd5dS3s44v6GaBCIF1-223" value="" style="curved=1;startArrow=none;endArrow=block;exitX=1;exitY=0.5;entryX=0;entryY=0.5;rounded=0;sketch=1;hachureGap=4;jiggle=2;curveFitting=1;fontFamily=Architects Daughter;fontSource=https%3A%2F%2Ffonts.googleapis.com%2Fcss%3Ffamily%3DArchitects%2BDaughter;fontSize=12;startSize=8;endSize=8;" edge="1" parent="1" source="0KKd5dS3s44v6GaBCIF1-74" target="0KKd5dS3s44v6GaBCIF1-112">
          <mxGeometry relative="1" as="geometry">
            <Array as="points" />
          </mxGeometry>
        </mxCell>
        <mxCell id="0KKd5dS3s44v6GaBCIF1-224" value="" style="curved=1;startArrow=none;endArrow=block;exitX=1;exitY=0.5;entryX=0;entryY=0.5;rounded=0;sketch=1;hachureGap=4;jiggle=2;curveFitting=1;fontFamily=Architects Daughter;fontSource=https%3A%2F%2Ffonts.googleapis.com%2Fcss%3Ffamily%3DArchitects%2BDaughter;fontSize=12;startSize=8;endSize=8;" edge="1" parent="1" source="0KKd5dS3s44v6GaBCIF1-75" target="0KKd5dS3s44v6GaBCIF1-113">
          <mxGeometry relative="1" as="geometry">
            <Array as="points" />
          </mxGeometry>
        </mxCell>
        <mxCell id="0KKd5dS3s44v6GaBCIF1-225" value="" style="curved=1;startArrow=none;endArrow=block;exitX=1;exitY=0.5;entryX=0;entryY=0.5;rounded=0;sketch=1;hachureGap=4;jiggle=2;curveFitting=1;fontFamily=Architects Daughter;fontSource=https%3A%2F%2Ffonts.googleapis.com%2Fcss%3Ffamily%3DArchitects%2BDaughter;fontSize=12;startSize=8;endSize=8;" edge="1" parent="1" source="0KKd5dS3s44v6GaBCIF1-76" target="0KKd5dS3s44v6GaBCIF1-114">
          <mxGeometry relative="1" as="geometry">
            <Array as="points" />
          </mxGeometry>
        </mxCell>
        <mxCell id="0KKd5dS3s44v6GaBCIF1-226" value="" style="curved=1;startArrow=none;endArrow=block;exitX=1;exitY=0.5;entryX=0;entryY=0.5;rounded=0;sketch=1;hachureGap=4;jiggle=2;curveFitting=1;fontFamily=Architects Daughter;fontSource=https%3A%2F%2Ffonts.googleapis.com%2Fcss%3Ffamily%3DArchitects%2BDaughter;fontSize=12;startSize=8;endSize=8;" edge="1" parent="1" source="0KKd5dS3s44v6GaBCIF1-77" target="0KKd5dS3s44v6GaBCIF1-115">
          <mxGeometry relative="1" as="geometry">
            <Array as="points" />
          </mxGeometry>
        </mxCell>
        <mxCell id="0KKd5dS3s44v6GaBCIF1-227" value="" style="curved=1;startArrow=none;endArrow=block;exitX=1;exitY=0.5;entryX=0;entryY=0.5;rounded=0;sketch=1;hachureGap=4;jiggle=2;curveFitting=1;fontFamily=Architects Daughter;fontSource=https%3A%2F%2Ffonts.googleapis.com%2Fcss%3Ffamily%3DArchitects%2BDaughter;fontSize=12;startSize=8;endSize=8;" edge="1" parent="1" source="0KKd5dS3s44v6GaBCIF1-78" target="0KKd5dS3s44v6GaBCIF1-116">
          <mxGeometry relative="1" as="geometry">
            <Array as="points" />
          </mxGeometry>
        </mxCell>
        <mxCell id="0KKd5dS3s44v6GaBCIF1-228" value="" style="curved=1;startArrow=none;endArrow=block;exitX=1;exitY=0.5;entryX=0;entryY=0.5;rounded=0;sketch=1;hachureGap=4;jiggle=2;curveFitting=1;fontFamily=Architects Daughter;fontSource=https%3A%2F%2Ffonts.googleapis.com%2Fcss%3Ffamily%3DArchitects%2BDaughter;fontSize=12;startSize=8;endSize=8;" edge="1" parent="1" source="0KKd5dS3s44v6GaBCIF1-79" target="0KKd5dS3s44v6GaBCIF1-117">
          <mxGeometry relative="1" as="geometry">
            <Array as="points" />
          </mxGeometry>
        </mxCell>
        <mxCell id="0KKd5dS3s44v6GaBCIF1-229" value="" style="curved=1;startArrow=none;endArrow=block;exitX=1;exitY=0.5;entryX=0;entryY=0.5;rounded=0;sketch=1;hachureGap=4;jiggle=2;curveFitting=1;fontFamily=Architects Daughter;fontSource=https%3A%2F%2Ffonts.googleapis.com%2Fcss%3Ffamily%3DArchitects%2BDaughter;fontSize=12;startSize=8;endSize=8;" edge="1" parent="1" source="0KKd5dS3s44v6GaBCIF1-80" target="0KKd5dS3s44v6GaBCIF1-118">
          <mxGeometry relative="1" as="geometry">
            <Array as="points" />
          </mxGeometry>
        </mxCell>
        <mxCell id="0KKd5dS3s44v6GaBCIF1-230" value="" style="curved=1;startArrow=none;endArrow=block;exitX=1;exitY=0.5;entryX=0;entryY=0.5;rounded=0;sketch=1;hachureGap=4;jiggle=2;curveFitting=1;fontFamily=Architects Daughter;fontSource=https%3A%2F%2Ffonts.googleapis.com%2Fcss%3Ffamily%3DArchitects%2BDaughter;fontSize=12;startSize=8;endSize=8;" edge="1" parent="1" source="0KKd5dS3s44v6GaBCIF1-81" target="0KKd5dS3s44v6GaBCIF1-119">
          <mxGeometry relative="1" as="geometry">
            <Array as="points" />
          </mxGeometry>
        </mxCell>
        <mxCell id="0KKd5dS3s44v6GaBCIF1-231" value="" style="curved=1;startArrow=none;endArrow=block;exitX=1;exitY=0.5;entryX=0;entryY=0.5;rounded=0;sketch=1;hachureGap=4;jiggle=2;curveFitting=1;fontFamily=Architects Daughter;fontSource=https%3A%2F%2Ffonts.googleapis.com%2Fcss%3Ffamily%3DArchitects%2BDaughter;fontSize=12;startSize=8;endSize=8;" edge="1" parent="1" source="0KKd5dS3s44v6GaBCIF1-82" target="0KKd5dS3s44v6GaBCIF1-120">
          <mxGeometry relative="1" as="geometry">
            <Array as="points" />
          </mxGeometry>
        </mxCell>
        <mxCell id="0KKd5dS3s44v6GaBCIF1-232" value="" style="curved=1;startArrow=none;endArrow=block;exitX=1;exitY=0.5;entryX=0;entryY=0.5;rounded=0;sketch=1;hachureGap=4;jiggle=2;curveFitting=1;fontFamily=Architects Daughter;fontSource=https%3A%2F%2Ffonts.googleapis.com%2Fcss%3Ffamily%3DArchitects%2BDaughter;fontSize=12;startSize=8;endSize=8;" edge="1" parent="1" source="0KKd5dS3s44v6GaBCIF1-83" target="0KKd5dS3s44v6GaBCIF1-121">
          <mxGeometry relative="1" as="geometry">
            <Array as="points" />
          </mxGeometry>
        </mxCell>
        <mxCell id="0KKd5dS3s44v6GaBCIF1-233" value="" style="curved=1;startArrow=none;endArrow=block;exitX=1;exitY=0.5;entryX=0;entryY=0.5;rounded=0;sketch=1;hachureGap=4;jiggle=2;curveFitting=1;fontFamily=Architects Daughter;fontSource=https%3A%2F%2Ffonts.googleapis.com%2Fcss%3Ffamily%3DArchitects%2BDaughter;fontSize=12;startSize=8;endSize=8;" edge="1" parent="1" source="0KKd5dS3s44v6GaBCIF1-84" target="0KKd5dS3s44v6GaBCIF1-122">
          <mxGeometry relative="1" as="geometry">
            <Array as="points" />
          </mxGeometry>
        </mxCell>
        <mxCell id="0KKd5dS3s44v6GaBCIF1-234" value="" style="curved=1;startArrow=none;endArrow=block;exitX=1;exitY=0.5;entryX=0;entryY=0.5;rounded=0;sketch=1;hachureGap=4;jiggle=2;curveFitting=1;fontFamily=Architects Daughter;fontSource=https%3A%2F%2Ffonts.googleapis.com%2Fcss%3Ffamily%3DArchitects%2BDaughter;fontSize=12;startSize=8;endSize=8;" edge="1" parent="1" source="0KKd5dS3s44v6GaBCIF1-85" target="0KKd5dS3s44v6GaBCIF1-123">
          <mxGeometry relative="1" as="geometry">
            <Array as="points" />
          </mxGeometry>
        </mxCell>
        <mxCell id="0KKd5dS3s44v6GaBCIF1-235" value="" style="curved=1;startArrow=none;endArrow=block;exitX=1;exitY=0.5;entryX=0;entryY=0.5;rounded=0;sketch=1;hachureGap=4;jiggle=2;curveFitting=1;fontFamily=Architects Daughter;fontSource=https%3A%2F%2Ffonts.googleapis.com%2Fcss%3Ffamily%3DArchitects%2BDaughter;fontSize=12;startSize=8;endSize=8;" edge="1" parent="1" source="0KKd5dS3s44v6GaBCIF1-86" target="0KKd5dS3s44v6GaBCIF1-124">
          <mxGeometry relative="1" as="geometry">
            <Array as="points" />
          </mxGeometry>
        </mxCell>
        <mxCell id="0KKd5dS3s44v6GaBCIF1-236" value="" style="curved=1;startArrow=none;endArrow=block;exitX=1;exitY=0.5;entryX=0;entryY=0.5;rounded=0;sketch=1;hachureGap=4;jiggle=2;curveFitting=1;fontFamily=Architects Daughter;fontSource=https%3A%2F%2Ffonts.googleapis.com%2Fcss%3Ffamily%3DArchitects%2BDaughter;fontSize=12;startSize=8;endSize=8;" edge="1" parent="1" source="0KKd5dS3s44v6GaBCIF1-87" target="0KKd5dS3s44v6GaBCIF1-125">
          <mxGeometry relative="1" as="geometry">
            <Array as="points" />
          </mxGeometry>
        </mxCell>
        <mxCell id="0KKd5dS3s44v6GaBCIF1-237" value="" style="curved=1;startArrow=none;endArrow=block;exitX=1;exitY=0.5;entryX=0;entryY=0.5;rounded=0;sketch=1;hachureGap=4;jiggle=2;curveFitting=1;fontFamily=Architects Daughter;fontSource=https%3A%2F%2Ffonts.googleapis.com%2Fcss%3Ffamily%3DArchitects%2BDaughter;fontSize=12;startSize=8;endSize=8;" edge="1" parent="1" source="0KKd5dS3s44v6GaBCIF1-126" target="0KKd5dS3s44v6GaBCIF1-12">
          <mxGeometry relative="1" as="geometry">
            <Array as="points" />
          </mxGeometry>
        </mxCell>
        <mxCell id="0KKd5dS3s44v6GaBCIF1-238" value="" style="curved=1;startArrow=none;endArrow=block;exitX=1;exitY=0.5;entryX=0;entryY=0.5;rounded=0;sketch=1;hachureGap=4;jiggle=2;curveFitting=1;fontFamily=Architects Daughter;fontSource=https%3A%2F%2Ffonts.googleapis.com%2Fcss%3Ffamily%3DArchitects%2BDaughter;fontSize=12;startSize=8;endSize=8;" edge="1" parent="1" source="0KKd5dS3s44v6GaBCIF1-127" target="0KKd5dS3s44v6GaBCIF1-14">
          <mxGeometry relative="1" as="geometry">
            <Array as="points" />
          </mxGeometry>
        </mxCell>
        <mxCell id="0KKd5dS3s44v6GaBCIF1-239" value="" style="curved=1;startArrow=none;endArrow=block;exitX=1;exitY=0.5;entryX=0;entryY=0.5;rounded=0;sketch=1;hachureGap=4;jiggle=2;curveFitting=1;fontFamily=Architects Daughter;fontSource=https%3A%2F%2Ffonts.googleapis.com%2Fcss%3Ffamily%3DArchitects%2BDaughter;fontSize=12;startSize=8;endSize=8;" edge="1" parent="1" source="0KKd5dS3s44v6GaBCIF1-128" target="0KKd5dS3s44v6GaBCIF1-15">
          <mxGeometry relative="1" as="geometry">
            <Array as="points" />
          </mxGeometry>
        </mxCell>
        <mxCell id="0KKd5dS3s44v6GaBCIF1-240" value="" style="curved=1;startArrow=none;endArrow=block;exitX=1;exitY=0.5;entryX=0;entryY=0.5;rounded=0;sketch=1;hachureGap=4;jiggle=2;curveFitting=1;fontFamily=Architects Daughter;fontSource=https%3A%2F%2Ffonts.googleapis.com%2Fcss%3Ffamily%3DArchitects%2BDaughter;fontSize=12;startSize=8;endSize=8;" edge="1" parent="1" source="0KKd5dS3s44v6GaBCIF1-129" target="0KKd5dS3s44v6GaBCIF1-16">
          <mxGeometry relative="1" as="geometry">
            <Array as="points" />
          </mxGeometry>
        </mxCell>
        <mxCell id="0KKd5dS3s44v6GaBCIF1-241" value="" style="curved=1;startArrow=none;endArrow=block;exitX=1;exitY=0.5;entryX=0;entryY=0.5;rounded=0;sketch=1;hachureGap=4;jiggle=2;curveFitting=1;fontFamily=Architects Daughter;fontSource=https%3A%2F%2Ffonts.googleapis.com%2Fcss%3Ffamily%3DArchitects%2BDaughter;fontSize=12;startSize=8;endSize=8;" edge="1" parent="1" source="0KKd5dS3s44v6GaBCIF1-130" target="0KKd5dS3s44v6GaBCIF1-17">
          <mxGeometry relative="1" as="geometry">
            <Array as="points" />
          </mxGeometry>
        </mxCell>
        <mxCell id="0KKd5dS3s44v6GaBCIF1-242" value="" style="curved=1;startArrow=none;endArrow=block;exitX=1;exitY=0.5;entryX=0;entryY=0.5;rounded=0;sketch=1;hachureGap=4;jiggle=2;curveFitting=1;fontFamily=Architects Daughter;fontSource=https%3A%2F%2Ffonts.googleapis.com%2Fcss%3Ffamily%3DArchitects%2BDaughter;fontSize=12;startSize=8;endSize=8;" edge="1" parent="1" source="0KKd5dS3s44v6GaBCIF1-131" target="0KKd5dS3s44v6GaBCIF1-18">
          <mxGeometry relative="1" as="geometry">
            <Array as="points" />
          </mxGeometry>
        </mxCell>
        <mxCell id="0KKd5dS3s44v6GaBCIF1-243" value="" style="curved=1;startArrow=none;endArrow=block;exitX=1;exitY=0.5;entryX=0;entryY=0.5;rounded=0;sketch=1;hachureGap=4;jiggle=2;curveFitting=1;fontFamily=Architects Daughter;fontSource=https%3A%2F%2Ffonts.googleapis.com%2Fcss%3Ffamily%3DArchitects%2BDaughter;fontSize=12;startSize=8;endSize=8;" edge="1" parent="1" source="0KKd5dS3s44v6GaBCIF1-132" target="0KKd5dS3s44v6GaBCIF1-19">
          <mxGeometry relative="1" as="geometry">
            <Array as="points" />
          </mxGeometry>
        </mxCell>
        <mxCell id="0KKd5dS3s44v6GaBCIF1-244" value="" style="curved=1;startArrow=none;endArrow=block;exitX=1;exitY=0.5;entryX=0;entryY=0.5;rounded=0;sketch=1;hachureGap=4;jiggle=2;curveFitting=1;fontFamily=Architects Daughter;fontSource=https%3A%2F%2Ffonts.googleapis.com%2Fcss%3Ffamily%3DArchitects%2BDaughter;fontSize=12;startSize=8;endSize=8;" edge="1" parent="1" source="0KKd5dS3s44v6GaBCIF1-133" target="0KKd5dS3s44v6GaBCIF1-20">
          <mxGeometry relative="1" as="geometry">
            <Array as="points" />
          </mxGeometry>
        </mxCell>
        <mxCell id="0KKd5dS3s44v6GaBCIF1-245" value="" style="curved=1;startArrow=none;endArrow=block;exitX=1;exitY=0.5;entryX=0;entryY=0.5;rounded=0;sketch=1;hachureGap=4;jiggle=2;curveFitting=1;fontFamily=Architects Daughter;fontSource=https%3A%2F%2Ffonts.googleapis.com%2Fcss%3Ffamily%3DArchitects%2BDaughter;fontSize=12;startSize=8;endSize=8;" edge="1" parent="1" source="0KKd5dS3s44v6GaBCIF1-134" target="0KKd5dS3s44v6GaBCIF1-21">
          <mxGeometry relative="1" as="geometry">
            <Array as="points" />
          </mxGeometry>
        </mxCell>
        <mxCell id="0KKd5dS3s44v6GaBCIF1-246" value="" style="curved=1;startArrow=none;endArrow=block;exitX=1;exitY=0.5;entryX=0;entryY=0.5;rounded=0;sketch=1;hachureGap=4;jiggle=2;curveFitting=1;fontFamily=Architects Daughter;fontSource=https%3A%2F%2Ffonts.googleapis.com%2Fcss%3Ffamily%3DArchitects%2BDaughter;fontSize=12;startSize=8;endSize=8;" edge="1" parent="1" source="0KKd5dS3s44v6GaBCIF1-135" target="0KKd5dS3s44v6GaBCIF1-23">
          <mxGeometry relative="1" as="geometry">
            <Array as="points" />
          </mxGeometry>
        </mxCell>
        <mxCell id="0KKd5dS3s44v6GaBCIF1-247" value="" style="curved=1;startArrow=none;endArrow=block;exitX=1.01;exitY=0.5;entryX=0;entryY=0.5;rounded=0;sketch=1;hachureGap=4;jiggle=2;curveFitting=1;fontFamily=Architects Daughter;fontSource=https%3A%2F%2Ffonts.googleapis.com%2Fcss%3Ffamily%3DArchitects%2BDaughter;fontSize=12;startSize=8;endSize=8;" edge="1" parent="1" source="0KKd5dS3s44v6GaBCIF1-136" target="0KKd5dS3s44v6GaBCIF1-24">
          <mxGeometry relative="1" as="geometry">
            <Array as="points" />
          </mxGeometry>
        </mxCell>
        <mxCell id="0KKd5dS3s44v6GaBCIF1-248" value="" style="curved=1;startArrow=none;endArrow=block;exitX=1;exitY=0.5;entryX=0;entryY=0.5;rounded=0;sketch=1;hachureGap=4;jiggle=2;curveFitting=1;fontFamily=Architects Daughter;fontSource=https%3A%2F%2Ffonts.googleapis.com%2Fcss%3Ffamily%3DArchitects%2BDaughter;fontSize=12;startSize=8;endSize=8;" edge="1" parent="1" source="0KKd5dS3s44v6GaBCIF1-137" target="0KKd5dS3s44v6GaBCIF1-25">
          <mxGeometry relative="1" as="geometry">
            <Array as="points" />
          </mxGeometry>
        </mxCell>
        <mxCell id="0KKd5dS3s44v6GaBCIF1-249" value="" style="curved=1;startArrow=none;endArrow=block;exitX=1;exitY=0.5;entryX=0;entryY=0.5;rounded=0;sketch=1;hachureGap=4;jiggle=2;curveFitting=1;fontFamily=Architects Daughter;fontSource=https%3A%2F%2Ffonts.googleapis.com%2Fcss%3Ffamily%3DArchitects%2BDaughter;fontSize=12;startSize=8;endSize=8;" edge="1" parent="1" source="0KKd5dS3s44v6GaBCIF1-138" target="0KKd5dS3s44v6GaBCIF1-26">
          <mxGeometry relative="1" as="geometry">
            <Array as="points" />
          </mxGeometry>
        </mxCell>
        <mxCell id="0KKd5dS3s44v6GaBCIF1-250" value="" style="curved=1;startArrow=none;endArrow=block;exitX=1;exitY=0.5;entryX=0;entryY=0.5;rounded=0;sketch=1;hachureGap=4;jiggle=2;curveFitting=1;fontFamily=Architects Daughter;fontSource=https%3A%2F%2Ffonts.googleapis.com%2Fcss%3Ffamily%3DArchitects%2BDaughter;fontSize=12;startSize=8;endSize=8;" edge="1" parent="1" source="0KKd5dS3s44v6GaBCIF1-139" target="0KKd5dS3s44v6GaBCIF1-27">
          <mxGeometry relative="1" as="geometry">
            <Array as="points" />
          </mxGeometry>
        </mxCell>
        <mxCell id="0KKd5dS3s44v6GaBCIF1-251" value="" style="curved=1;startArrow=none;endArrow=block;exitX=1;exitY=0.5;entryX=0;entryY=0.5;rounded=0;sketch=1;hachureGap=4;jiggle=2;curveFitting=1;fontFamily=Architects Daughter;fontSource=https%3A%2F%2Ffonts.googleapis.com%2Fcss%3Ffamily%3DArchitects%2BDaughter;fontSize=12;startSize=8;endSize=8;" edge="1" parent="1" source="0KKd5dS3s44v6GaBCIF1-140" target="0KKd5dS3s44v6GaBCIF1-28">
          <mxGeometry relative="1" as="geometry">
            <Array as="points" />
          </mxGeometry>
        </mxCell>
        <mxCell id="0KKd5dS3s44v6GaBCIF1-252" value="" style="curved=1;startArrow=none;endArrow=block;exitX=1;exitY=0.5;entryX=0;entryY=0.5;rounded=0;sketch=1;hachureGap=4;jiggle=2;curveFitting=1;fontFamily=Architects Daughter;fontSource=https%3A%2F%2Ffonts.googleapis.com%2Fcss%3Ffamily%3DArchitects%2BDaughter;fontSize=12;startSize=8;endSize=8;" edge="1" parent="1" source="0KKd5dS3s44v6GaBCIF1-141" target="0KKd5dS3s44v6GaBCIF1-29">
          <mxGeometry relative="1" as="geometry">
            <Array as="points" />
          </mxGeometry>
        </mxCell>
        <mxCell id="0KKd5dS3s44v6GaBCIF1-253" value="" style="curved=1;startArrow=none;endArrow=block;exitX=1;exitY=0.5;entryX=0;entryY=0.5;rounded=0;sketch=1;hachureGap=4;jiggle=2;curveFitting=1;fontFamily=Architects Daughter;fontSource=https%3A%2F%2Ffonts.googleapis.com%2Fcss%3Ffamily%3DArchitects%2BDaughter;fontSize=12;startSize=8;endSize=8;" edge="1" parent="1" source="0KKd5dS3s44v6GaBCIF1-142" target="0KKd5dS3s44v6GaBCIF1-30">
          <mxGeometry relative="1" as="geometry">
            <Array as="points" />
          </mxGeometry>
        </mxCell>
        <mxCell id="0KKd5dS3s44v6GaBCIF1-254" value="" style="curved=1;startArrow=none;endArrow=block;exitX=1;exitY=0.5;entryX=0;entryY=0.5;rounded=0;sketch=1;hachureGap=4;jiggle=2;curveFitting=1;fontFamily=Architects Daughter;fontSource=https%3A%2F%2Ffonts.googleapis.com%2Fcss%3Ffamily%3DArchitects%2BDaughter;fontSize=12;startSize=8;endSize=8;" edge="1" parent="1" source="0KKd5dS3s44v6GaBCIF1-143" target="0KKd5dS3s44v6GaBCIF1-31">
          <mxGeometry relative="1" as="geometry">
            <Array as="points" />
          </mxGeometry>
        </mxCell>
        <mxCell id="0KKd5dS3s44v6GaBCIF1-255" value="" style="curved=1;startArrow=none;endArrow=block;exitX=1;exitY=0.5;entryX=0;entryY=0.5;rounded=0;sketch=1;hachureGap=4;jiggle=2;curveFitting=1;fontFamily=Architects Daughter;fontSource=https%3A%2F%2Ffonts.googleapis.com%2Fcss%3Ffamily%3DArchitects%2BDaughter;fontSize=12;startSize=8;endSize=8;" edge="1" parent="1" source="0KKd5dS3s44v6GaBCIF1-144" target="0KKd5dS3s44v6GaBCIF1-32">
          <mxGeometry relative="1" as="geometry">
            <Array as="points" />
          </mxGeometry>
        </mxCell>
        <mxCell id="0KKd5dS3s44v6GaBCIF1-256" value="" style="curved=1;startArrow=none;endArrow=block;exitX=1;exitY=0.5;entryX=0;entryY=0.5;rounded=0;sketch=1;hachureGap=4;jiggle=2;curveFitting=1;fontFamily=Architects Daughter;fontSource=https%3A%2F%2Ffonts.googleapis.com%2Fcss%3Ffamily%3DArchitects%2BDaughter;fontSize=12;startSize=8;endSize=8;" edge="1" parent="1" source="0KKd5dS3s44v6GaBCIF1-145" target="0KKd5dS3s44v6GaBCIF1-33">
          <mxGeometry relative="1" as="geometry">
            <Array as="points" />
          </mxGeometry>
        </mxCell>
        <mxCell id="0KKd5dS3s44v6GaBCIF1-257" value="" style="curved=1;startArrow=none;endArrow=block;exitX=1;exitY=0.5;entryX=0;entryY=0.5;rounded=0;sketch=1;hachureGap=4;jiggle=2;curveFitting=1;fontFamily=Architects Daughter;fontSource=https%3A%2F%2Ffonts.googleapis.com%2Fcss%3Ffamily%3DArchitects%2BDaughter;fontSize=12;startSize=8;endSize=8;" edge="1" parent="1" source="0KKd5dS3s44v6GaBCIF1-146" target="0KKd5dS3s44v6GaBCIF1-34">
          <mxGeometry relative="1" as="geometry">
            <Array as="points" />
          </mxGeometry>
        </mxCell>
        <mxCell id="0KKd5dS3s44v6GaBCIF1-258" value="" style="curved=1;startArrow=none;endArrow=block;exitX=1;exitY=0.5;entryX=0;entryY=0.5;rounded=0;sketch=1;hachureGap=4;jiggle=2;curveFitting=1;fontFamily=Architects Daughter;fontSource=https%3A%2F%2Ffonts.googleapis.com%2Fcss%3Ffamily%3DArchitects%2BDaughter;fontSize=12;startSize=8;endSize=8;" edge="1" parent="1" source="0KKd5dS3s44v6GaBCIF1-147" target="0KKd5dS3s44v6GaBCIF1-35">
          <mxGeometry relative="1" as="geometry">
            <Array as="points" />
          </mxGeometry>
        </mxCell>
        <mxCell id="0KKd5dS3s44v6GaBCIF1-259" value="" style="curved=1;startArrow=none;endArrow=block;exitX=1;exitY=0.5;entryX=0;entryY=0.5;rounded=0;sketch=1;hachureGap=4;jiggle=2;curveFitting=1;fontFamily=Architects Daughter;fontSource=https%3A%2F%2Ffonts.googleapis.com%2Fcss%3Ffamily%3DArchitects%2BDaughter;fontSize=12;startSize=8;endSize=8;" edge="1" parent="1" source="0KKd5dS3s44v6GaBCIF1-148" target="0KKd5dS3s44v6GaBCIF1-36">
          <mxGeometry relative="1" as="geometry">
            <Array as="points" />
          </mxGeometry>
        </mxCell>
        <mxCell id="0KKd5dS3s44v6GaBCIF1-260" value="" style="curved=1;startArrow=none;endArrow=block;exitX=1;exitY=0.5;entryX=0;entryY=0.5;rounded=0;sketch=1;hachureGap=4;jiggle=2;curveFitting=1;fontFamily=Architects Daughter;fontSource=https%3A%2F%2Ffonts.googleapis.com%2Fcss%3Ffamily%3DArchitects%2BDaughter;fontSize=12;startSize=8;endSize=8;" edge="1" parent="1" source="0KKd5dS3s44v6GaBCIF1-149" target="0KKd5dS3s44v6GaBCIF1-37">
          <mxGeometry relative="1" as="geometry">
            <Array as="points" />
          </mxGeometry>
        </mxCell>
        <mxCell id="0KKd5dS3s44v6GaBCIF1-261" value="" style="curved=1;startArrow=none;endArrow=block;exitX=1;exitY=0.5;entryX=0;entryY=0.5;rounded=0;sketch=1;hachureGap=4;jiggle=2;curveFitting=1;fontFamily=Architects Daughter;fontSource=https%3A%2F%2Ffonts.googleapis.com%2Fcss%3Ffamily%3DArchitects%2BDaughter;fontSize=12;startSize=8;endSize=8;" edge="1" parent="1" source="0KKd5dS3s44v6GaBCIF1-150" target="0KKd5dS3s44v6GaBCIF1-43">
          <mxGeometry relative="1" as="geometry">
            <Array as="points" />
          </mxGeometry>
        </mxCell>
        <mxCell id="0KKd5dS3s44v6GaBCIF1-262" value="" style="curved=1;startArrow=none;endArrow=block;exitX=1;exitY=0.5;entryX=0;entryY=0.5;rounded=0;sketch=1;hachureGap=4;jiggle=2;curveFitting=1;fontFamily=Architects Daughter;fontSource=https%3A%2F%2Ffonts.googleapis.com%2Fcss%3Ffamily%3DArchitects%2BDaughter;fontSize=12;startSize=8;endSize=8;" edge="1" parent="1" source="0KKd5dS3s44v6GaBCIF1-151" target="0KKd5dS3s44v6GaBCIF1-49">
          <mxGeometry relative="1" as="geometry">
            <Array as="points" />
          </mxGeometry>
        </mxCell>
        <mxCell id="0KKd5dS3s44v6GaBCIF1-265" value="" style="curved=1;startArrow=none;endArrow=block;exitX=1;exitY=0.5;entryX=0;entryY=0.5;rounded=0;sketch=1;hachureGap=4;jiggle=2;curveFitting=1;fontFamily=Architects Daughter;fontSource=https%3A%2F%2Ffonts.googleapis.com%2Fcss%3Ffamily%3DArchitects%2BDaughter;fontSize=12;startSize=8;endSize=8;" edge="1" parent="1" source="0KKd5dS3s44v6GaBCIF1-154" target="0KKd5dS3s44v6GaBCIF1-38">
          <mxGeometry relative="1" as="geometry">
            <Array as="points" />
          </mxGeometry>
        </mxCell>
        <mxCell id="0KKd5dS3s44v6GaBCIF1-266" value="" style="curved=1;startArrow=none;endArrow=block;exitX=1;exitY=0.5;entryX=0;entryY=0.5;rounded=0;sketch=1;hachureGap=4;jiggle=2;curveFitting=1;fontFamily=Architects Daughter;fontSource=https%3A%2F%2Ffonts.googleapis.com%2Fcss%3Ffamily%3DArchitects%2BDaughter;fontSize=12;startSize=8;endSize=8;" edge="1" parent="1" source="0KKd5dS3s44v6GaBCIF1-155" target="0KKd5dS3s44v6GaBCIF1-41">
          <mxGeometry relative="1" as="geometry">
            <Array as="points" />
          </mxGeometry>
        </mxCell>
        <mxCell id="0KKd5dS3s44v6GaBCIF1-267" value="" style="curved=1;startArrow=none;endArrow=block;exitX=1;exitY=0.5;entryX=0;entryY=0.5;rounded=0;sketch=1;hachureGap=4;jiggle=2;curveFitting=1;fontFamily=Architects Daughter;fontSource=https%3A%2F%2Ffonts.googleapis.com%2Fcss%3Ffamily%3DArchitects%2BDaughter;fontSize=12;startSize=8;endSize=8;" edge="1" parent="1" source="0KKd5dS3s44v6GaBCIF1-156" target="0KKd5dS3s44v6GaBCIF1-40">
          <mxGeometry relative="1" as="geometry">
            <Array as="points" />
          </mxGeometry>
        </mxCell>
        <mxCell id="0KKd5dS3s44v6GaBCIF1-268" value="" style="curved=1;startArrow=none;endArrow=block;exitX=1;exitY=0.5;entryX=0;entryY=0.5;rounded=0;sketch=1;hachureGap=4;jiggle=2;curveFitting=1;fontFamily=Architects Daughter;fontSource=https%3A%2F%2Ffonts.googleapis.com%2Fcss%3Ffamily%3DArchitects%2BDaughter;fontSize=12;startSize=8;endSize=8;" edge="1" parent="1" source="0KKd5dS3s44v6GaBCIF1-157" target="0KKd5dS3s44v6GaBCIF1-42">
          <mxGeometry relative="1" as="geometry">
            <Array as="points" />
          </mxGeometry>
        </mxCell>
        <mxCell id="0KKd5dS3s44v6GaBCIF1-269" value="" style="curved=1;startArrow=none;endArrow=block;exitX=1.01;exitY=0.5;entryX=0;entryY=0.5;rounded=0;sketch=1;hachureGap=4;jiggle=2;curveFitting=1;fontFamily=Architects Daughter;fontSource=https%3A%2F%2Ffonts.googleapis.com%2Fcss%3Ffamily%3DArchitects%2BDaughter;fontSize=12;startSize=8;endSize=8;" edge="1" parent="1" source="0KKd5dS3s44v6GaBCIF1-158" target="0KKd5dS3s44v6GaBCIF1-44">
          <mxGeometry relative="1" as="geometry">
            <Array as="points" />
          </mxGeometry>
        </mxCell>
        <mxCell id="0KKd5dS3s44v6GaBCIF1-270" value="" style="curved=1;startArrow=none;endArrow=block;exitX=1.01;exitY=0.5;entryX=0;entryY=0.5;rounded=0;sketch=1;hachureGap=4;jiggle=2;curveFitting=1;fontFamily=Architects Daughter;fontSource=https%3A%2F%2Ffonts.googleapis.com%2Fcss%3Ffamily%3DArchitects%2BDaughter;fontSize=12;startSize=8;endSize=8;" edge="1" parent="1" source="0KKd5dS3s44v6GaBCIF1-159" target="0KKd5dS3s44v6GaBCIF1-46">
          <mxGeometry relative="1" as="geometry">
            <Array as="points" />
          </mxGeometry>
        </mxCell>
        <mxCell id="0KKd5dS3s44v6GaBCIF1-275" value="ODS" style="text;strokeColor=none;fillColor=none;html=1;align=center;verticalAlign=middle;whiteSpace=wrap;rounded=0;fontSize=27;fontFamily=Architects Daughter;fontSource=https%3A%2F%2Ffonts.googleapis.com%2Fcss%3Ffamily%3DArchitects%2BDaughter;fontStyle=1" vertex="1" parent="1">
          <mxGeometry x="202.5" y="-73" width="60" height="30" as="geometry" />
        </mxCell>
        <mxCell id="0KKd5dS3s44v6GaBCIF1-276" value="Hive" style="text;strokeColor=none;fillColor=none;html=1;align=center;verticalAlign=middle;whiteSpace=wrap;rounded=0;fontSize=27;fontFamily=Architects Daughter;fontSource=https%3A%2F%2Ffonts.googleapis.com%2Fcss%3Ffamily%3DArchitects%2BDaughter;fontStyle=1" vertex="1" parent="1">
          <mxGeometry x="450.5" y="-73" width="60" height="30" as="geometry" />
        </mxCell>
        <mxCell id="0KKd5dS3s44v6GaBCIF1-277" value="IFA" style="text;strokeColor=none;fillColor=none;html=1;align=center;verticalAlign=middle;whiteSpace=wrap;rounded=0;fontSize=27;fontFamily=Architects Daughter;fontSource=https%3A%2F%2Ffonts.googleapis.com%2Fcss%3Ffamily%3DArchitects%2BDaughter;fontStyle=1" vertex="1" parent="1">
          <mxGeometry x="691.5" y="-73" width="60" height="30" as="geometry" />
        </mxCell>
        <mxCell id="0KKd5dS3s44v6GaBCIF1-278" value="6:00" style="text;strokeColor=none;fillColor=none;html=1;align=center;verticalAlign=middle;whiteSpace=wrap;rounded=0;fontSize=16;fontFamily=Architects Daughter;fontSource=https%3A%2F%2Ffonts.googleapis.com%2Fcss%3Ffamily%3DArchitects%2BDaughter;" vertex="1" parent="1">
          <mxGeometry x="-44" y="44" width="60" height="30" as="geometry" />
        </mxCell>
        <mxCell id="0KKd5dS3s44v6GaBCIF1-279" value="&lt;span style=&quot;font-size: 12px; text-align: left;&quot;&gt;1200&lt;/span&gt;" style="text;strokeColor=none;fillColor=none;html=1;align=center;verticalAlign=middle;whiteSpace=wrap;rounded=0;fontSize=16;fontFamily=Architects Daughter;fontSource=https%3A%2F%2Ffonts.googleapis.com%2Fcss%3Ffamily%3DArchitects%2BDaughter;" vertex="1" parent="1">
          <mxGeometry x="-43" y="4037" width="60" height="30" as="geometry" />
        </mxCell>
      </root>
    </mxGraphModel>
  </diagram>
</mxfile>
